<?xml version="1.0" encoding="UTF-8" standalone="no"?>
<svg
   xmlns:dc="http://purl.org/dc/elements/1.1/"
   xmlns:cc="http://creativecommons.org/ns#"
   xmlns:rdf="http://www.w3.org/1999/02/22-rdf-syntax-ns#"
   xmlns:svg="http://www.w3.org/2000/svg"
   xmlns="http://www.w3.org/2000/svg"
   xmlns:sodipodi="http://sodipodi.sourceforge.net/DTD/sodipodi-0.dtd"
   xmlns:inkscape="http://www.inkscape.org/namespaces/inkscape"
   id="svg8"
   version="1.1"
   viewBox="0 0 150 150"
   height="150mm"
   width="150mm"
   sodipodi:docname="diagram_enerjog.svg"
   inkscape:version="0.92.3 (2405546, 2018-03-11)">
  <sodipodi:namedview
     pagecolor="#ffffff"
     bordercolor="#666666"
     borderopacity="1"
     objecttolerance="10"
     gridtolerance="10"
     guidetolerance="10"
     inkscape:pageopacity="0"
     inkscape:pageshadow="2"
     inkscape:window-width="1920"
     inkscape:window-height="1003"
     id="namedview4734"
     showgrid="false"
     inkscape:zoom="0.96"
     inkscape:cx="-73.305893"
     inkscape:cy="355.45076"
     inkscape:window-x="0"
     inkscape:window-y="46"
     inkscape:window-maximized="1"
     inkscape:current-layer="svg8" />
  <defs
     id="defs2">
    <marker
       inkscape:isstock="true"
       style="overflow:visible;"
       id="marker2798"
       refX="0.0"
       refY="0.0"
       orient="auto"
       inkscape:stockid="Arrow1Lend">
      <path
         transform="scale(0.8) rotate(180) translate(12.5,0)"
         style="fill-rule:evenodd;stroke:#000000;stroke-width:1pt;stroke-opacity:1;fill:#00e491;fill-opacity:1"
         d="M 0.0,0.0 L 5.0,-5.0 L -12.5,0.0 L 5.0,5.0 L 0.0,0.0 z "
         id="path2796" />
    </marker>
    <marker
       inkscape:isstock="true"
       style="overflow:visible;"
       id="marker2748"
       refX="0.0"
       refY="0.0"
       orient="auto"
       inkscape:stockid="Arrow1Lend">
      <path
         transform="scale(0.8) rotate(180) translate(12.5,0)"
         style="fill-rule:evenodd;stroke:#000000;stroke-width:1pt;stroke-opacity:1;fill:#00e491;fill-opacity:1"
         d="M 0.0,0.0 L 5.0,-5.0 L -12.5,0.0 L 5.0,5.0 L 0.0,0.0 z "
         id="path2746" />
    </marker>
    <marker
       inkscape:stockid="Arrow1Lend"
       orient="auto"
       refY="0.0"
       refX="0.0"
       id="marker2698"
       style="overflow:visible;"
       inkscape:isstock="true">
      <path
         id="path2696"
         d="M 0.0,0.0 L 5.0,-5.0 L -12.5,0.0 L 5.0,5.0 L 0.0,0.0 z "
         style="fill-rule:evenodd;stroke:#000000;stroke-width:1pt;stroke-opacity:1;fill:#00e491;fill-opacity:1"
         transform="scale(0.8) rotate(180) translate(12.5,0)" />
    </marker>
    <marker
       inkscape:isstock="true"
       style="overflow:visible;"
       id="marker2604"
       refX="0.0"
       refY="0.0"
       orient="auto"
       inkscape:stockid="Arrow1Lend"
       inkscape:collect="always">
      <path
         transform="scale(0.8) rotate(180) translate(12.5,0)"
         style="fill-rule:evenodd;stroke:#000000;stroke-width:1pt;stroke-opacity:1;fill:#00e491;fill-opacity:1"
         d="M 0.0,0.0 L 5.0,-5.0 L -12.5,0.0 L 5.0,5.0 L 0.0,0.0 z "
         id="path2602" />
    </marker>
    <marker
       inkscape:stockid="ExperimentalArrow"
       orient="auto-start-reverse"
       refY="3.0"
       refX="5.0"
       id="marker8283"
       inkscape:isstock="true">
      <path
         id="path8281"
         d="m 10,3 -10,3 0,-6 z"
         style="fill:#00e491;stroke:#000000;stroke-opacity:1;fill-opacity:1" />
    </marker>
    <marker
       inkscape:stockid="Tail"
       orient="auto"
       refY="0.0"
       refX="0.0"
       id="Tail"
       style="overflow:visible"
       inkscape:isstock="true">
      <g
         id="g5599"
         transform="scale(-1.2)"
         style="stroke:#000000;stroke-opacity:1;fill:#000000;fill-opacity:1">
        <path
           id="path5587"
           d="M -3.8048674,-3.9585227 L 0.54352094,0"
           style="fill:#000000;fill-rule:evenodd;stroke:#000000;stroke-width:0.8;stroke-linecap:round;stroke-opacity:1;fill-opacity:1" />
        <path
           id="path5589"
           d="M -1.2866832,-3.9585227 L 3.0617053,0"
           style="fill:#000000;fill-rule:evenodd;stroke:#000000;stroke-width:0.8;stroke-linecap:round;stroke-opacity:1;fill-opacity:1" />
        <path
           id="path5591"
           d="M 1.3053582,-3.9585227 L 5.6537466,0"
           style="fill:#000000;fill-rule:evenodd;stroke:#000000;stroke-width:0.8;stroke-linecap:round;stroke-opacity:1;fill-opacity:1" />
        <path
           id="path5593"
           d="M -3.8048674,4.1775838 L 0.54352094,0.21974226"
           style="fill:#000000;fill-rule:evenodd;stroke:#000000;stroke-width:0.8;stroke-linecap:round;stroke-opacity:1;fill-opacity:1" />
        <path
           id="path5595"
           d="M -1.2866832,4.1775838 L 3.0617053,0.21974226"
           style="fill:#000000;fill-rule:evenodd;stroke:#000000;stroke-width:0.8;stroke-linecap:round;stroke-opacity:1;fill-opacity:1" />
        <path
           id="path5597"
           d="M 1.3053582,4.1775838 L 5.6537466,0.21974226"
           style="fill:#000000;fill-rule:evenodd;stroke:#000000;stroke-width:0.8;stroke-linecap:round;stroke-opacity:1;fill-opacity:1" />
      </g>
    </marker>
    <marker
       inkscape:stockid="Arrow1Lend"
       orient="auto"
       refY="0.0"
       refX="0.0"
       id="Arrow1Lend"
       style="overflow:visible;"
       inkscape:isstock="true"
       inkscape:collect="always">
      <path
         id="path5554"
         d="M 0.0,0.0 L 5.0,-5.0 L -12.5,0.0 L 5.0,5.0 L 0.0,0.0 z "
         style="fill-rule:evenodd;stroke:#000000;stroke-width:1pt;stroke-opacity:1;fill:#00e491;fill-opacity:1"
         transform="scale(0.8) rotate(180) translate(12.5,0)" />
    </marker>
    <marker
       inkscape:stockid="Arrow1Lstart"
       orient="auto"
       refY="0.0"
       refX="0.0"
       id="Arrow1Lstart"
       style="overflow:visible"
       inkscape:isstock="true">
      <path
         id="path5551"
         d="M 0.0,0.0 L 5.0,-5.0 L -12.5,0.0 L 5.0,5.0 L 0.0,0.0 z "
         style="fill-rule:evenodd;stroke:#000000;stroke-width:1pt;stroke-opacity:1;fill:#000000;fill-opacity:1"
         transform="scale(0.8) translate(12.5,0)" />
    </marker>
  </defs>
  <metadata
     id="metadata5">
    <rdf:RDF>
      <cc:Work
         rdf:about="">
        <dc:format>image/svg+xml</dc:format>
        <dc:type
           rdf:resource="http://purl.org/dc/dcmitype/StillImage" />
        <dc:title />
      </cc:Work>
    </rdf:RDF>
  </metadata>
  <g
     id="layer1"
     transform="matrix(0.38541184,0,0,0.38541184,45.061719,35.649713)">
    <path
       id="path21"
       d="m 43.832203,2.7362499 c 0,0 -9.087165,2.8063301 -14.165286,10.8244161 -5.078121,8.018085 -10.423511,34.745038 -10.423511,34.745038 L 14.29892,73.429039 8.2853553,111.91585 4.0090428,142.25094 c 0,0 -0.8018084,14.56619 0,14.96709 0.8018087,0.40091 -1.7372519,5.61267 6.1471992,18.70887 7.884451,13.09621 25.123336,15.50163 25.123336,15.50163 l 24.9897,6.28084 c 0,0 9.888971,3.34087 23.920622,-5.21176 14.03165,-8.55262 22.58427,-35.27958 22.58427,-35.27958 0,0 3.00679,-0.73499 4.2095,-3.20723 1.20271,-2.47224 3.00678,-7.88445 3.00678,-7.88445 l 0.66818,-20.17885 c 0,0 3.8754,-21.84928 4.27631,-26.125597 0.4009,-4.276312 2.00452,-17.773422 1.9377,-19.243404 -0.0668,-1.469983 0.60136,-7.817633 0.66818,-10.022607 0.0668,-2.204974 0.0668,-9.087165 0.0668,-9.087165 0,0 3.20724,-3.340867 4.54359,-5.545841 1.33634,-2.204974 -0.0668,-18.307963 -0.0668,-18.307963 l -1.46999,-1.870887 -4.94448,-0.400905 c 0,0 0.26727,-2.00452 -1.9377,-5.011303 -2.20498,-3.006781 -5.14494,-5.211756 -5.14494,-5.211756 0,0 -2.27179,-5.211755 -4.67722,-8.619442 C 105.50465,13.092944 101.16152,8.0816401 94.41296,5.2753103 87.664405,2.4689802 83.855813,1.8008064 65.213764,1.8008064 c -18.64205,0 -21.381561,1.0022611 -21.381561,0.9354435 z"
       style="fill:none;stroke:#000000;stroke-width:1.46500003;stroke-linecap:butt;stroke-linejoin:miter;stroke-miterlimit:4;stroke-dasharray:none;stroke-opacity:1"
       inkscape:connector-curvature="0" />
    <path
       id="path23"
       d="m 73.516367,35.629463 c 0,0 -3.401785,13.607143 -5.291666,24.379465 -1.889879,10.77232 -5.480653,31.372024 -5.480653,31.372024 l -3.401788,22.300598 -3.779761,30.0491 c 0,0 -1.889881,12.6622 -1.322916,18.33185 0.566965,5.66964 2.834822,14.36309 2.834822,14.36309 0,0 7.9375,-5.48065 12.851188,-16.63095 4.913691,-11.1503 4.724704,-11.1503 4.724704,-11.1503 0,0 -1.889881,-1.88988 -1.700892,-6.04761 0.188987,-4.15774 0.566962,-17.95388 0.566962,-17.95388 l 0.377976,-4.53571 c 0,0 0.755954,-1.32291 3.023812,-1.5119 2.267855,-0.18899 2.83482,2.64583 5.480653,-16.63096 2.645833,-19.276782 2.834823,-41.388387 2.834823,-41.388387 L 80.697916,58.874998 77.863093,42.622022 c 0,0 0.188989,-2.645833 2.078871,-3.96875 1.889879,-1.322916 1.889879,-1.700892 1.889879,-1.700892 0,0 -1.700892,-7.559524 -4.157736,-9.827382 -2.456847,-2.267856 -4.15774,8.504465 -4.15774,8.504465 z"
       style="fill:none;stroke:#000000;stroke-width:1.46500003;stroke-linecap:butt;stroke-linejoin:miter;stroke-miterlimit:4;stroke-dasharray:none;stroke-opacity:1"
       inkscape:connector-curvature="0" />
    <path
       id="path27"
       d="m 25.657874,21.445117 34.74504,2.405426 5.612659,3.207233 c 0,0 -7.216278,31.537803 -10.690781,53.988445 -3.474505,22.450639 -8.018086,53.988439 -9.354433,66.015569 -1.336347,12.02713 -1.069078,12.2944 -1.069078,12.2944 l -7.750818,1.87089 -33.6759592,-7.48355"
       style="fill:none;fill-opacity:1;stroke:#000000;stroke-width:1.46500003;stroke-linecap:butt;stroke-linejoin:miter;stroke-miterlimit:4;stroke-dasharray:none;stroke-opacity:1"
       inkscape:connector-curvature="0" />
    <path
       id="path29"
       d="m 92.604166,4.7299102 c 0,0 -3.590775,-1.4174108 -9.827382,2.5513392 -6.236608,3.9687496 -12.851191,21.2611616 -13.229167,22.9620536 -0.377975,1.700893 -8.743801,41.448484 -9.946512,48.130222 -1.202714,6.681739 -6.949009,45.569455 -6.949009,45.569455 l -3.474503,31.00326 c 0,0 -1.202714,12.69531 1.870887,24.5888 3.073599,11.89349 11.225318,16.83798 14.298919,17.63979 3.073599,0.80181 3.073599,0.93544 3.073599,0.93544"
       style="fill:none;stroke:#000000;stroke-width:1.46500003;stroke-linecap:butt;stroke-linejoin:miter;stroke-miterlimit:4;stroke-dasharray:none;stroke-opacity:1"
       inkscape:connector-curvature="0" />
    <path
       id="path31"
       d="m 81.38357,2.0680761 c 0,0 -8.552624,1.0690781 -12.294399,5.2117556 -3.741772,4.1426783 -5.879928,7.2162773 -6.815373,10.0226073 -0.935442,2.80633 -1.870884,6.548104 -1.870884,6.548104 0,0 -3.706487,15.558684 -6.163331,27.65392 -2.456844,12.095239 -4.346726,23.434524 -4.346726,23.434524 l -5.10268,31.372023 -3.96875,27.21429 -2.456844,23.8125 c 0,0 -0.566965,-0.18899 -0.188989,15.49702 0.377978,15.68601 17.386905,23.43452 17.386905,23.43452"
       style="fill:none;stroke:#000000;stroke-width:1.46500003;stroke-linecap:butt;stroke-linejoin:miter;stroke-miterlimit:4;stroke-dasharray:none;stroke-opacity:1"
       inkscape:connector-curvature="0" />
    <path
       id="path33"
       d="m 90.06983,120.86938 c 0,0 -2.138156,1.87089 -1.603618,5.7463 0.53454,3.8754 -1.069078,9.88897 -1.069078,9.88897 0,0 0,3.0736 0.53454,5.07812 0.534538,2.00452 4.543581,2.67269 6.815373,2.80633 2.271789,0.13363 2.405425,-1.33635 2.405425,-1.33635 l 1.069078,-2.00452 c 0,0 -0.668173,-2.00452 -2.271792,-1.60362 -1.603616,0.40091 0.534541,-7.88445 0.534541,-8.01808 0,-0.13364 -0.534541,-4.40995 -0.267269,-5.21176 0.267269,-0.80181 1.202711,-4.00904 1.202711,-4.00904"
       style="fill:none;stroke:#000000;stroke-width:1.46500003;stroke-linecap:butt;stroke-linejoin:miter;stroke-miterlimit:4;stroke-dasharray:none;stroke-opacity:1"
       inkscape:connector-curvature="0" />
    <path
       id="path35"
       d="m 78.978145,118.33032 11.091683,2.53906 7.349913,1.33635 c 0,0 13.764379,1.73725 14.298919,1.06908 0.53454,-0.66818 2.93997,2.67269 2.93997,2.67269"
       style="fill:none;stroke:#000000;stroke-width:1.46500003;stroke-linecap:butt;stroke-linejoin:miter;stroke-miterlimit:4;stroke-dasharray:none;stroke-opacity:1"
       inkscape:connector-curvature="0" />
    <path
       id="path39"
       d="m 119.66994,35.343131 0.13362,1.937705 2.07134,-0.06682 0.60136,1.135896 -3.4745,4.744035 c 0,0 -0.735,1.670434 -10.08943,1.135893 -9.354433,-0.534537 -22.717907,-1.403164 -22.717907,-1.403164 0,0 -3.875411,-0.400905 -4.476766,-0.734992 -0.601356,-0.334087 -1.069078,-1.069078 -0.06682,-2.071338 1.00226,-1.00226 0.76291,-0.790546 0.181004,-3.067968"
       style="fill:none;stroke:#000000;stroke-width:1.46500003;stroke-linecap:butt;stroke-linejoin:miter;stroke-miterlimit:4;stroke-dasharray:none;stroke-opacity:1"
       inkscape:connector-curvature="0" />
    <path
       id="path41"
       d="m 77.863093,42.622022 c 0,0 0.580512,1.340551 2.852304,1.674638 2.271792,0.334087 18.642049,1.33635 18.642049,1.33635 l 14.900274,0.668173 c 0,0 4.27631,0.334087 6.88219,-2.138156 2.60588,-2.472243 4.9445,-6.548104 4.9445,-6.548104"
       style="fill:none;stroke:#000000;stroke-width:1.46500003;stroke-linecap:butt;stroke-linejoin:miter;stroke-miterlimit:4;stroke-dasharray:none;stroke-opacity:1"
       inkscape:connector-curvature="0" />
    <path
       id="path43"
       d="m 85.233631,60.575893 15.259709,1.160105 13.02939,0.734992 c 0,0 4.3431,0.534535 8.08489,-1.002263"
       style="fill:none;stroke:#000000;stroke-width:1.46500003;stroke-linecap:butt;stroke-linejoin:miter;stroke-miterlimit:4;stroke-dasharray:none;stroke-opacity:1"
       inkscape:connector-curvature="0" />
    <path
       id="path45"
       d="m 78.978145,118.33032 c 0,0 -2.012743,0.50115 -2.957684,3.28873 -0.944941,2.78757 0,6.85081 0.04725,5.71688 0.04725,-1.13392 -0.09449,7.89026 -0.09449,7.89026 l -0.377976,9.82738 3.496278,-10.3471 -0.188986,-6.00037 1.700892,0.28348 -1.511906,5.76414"
       style="fill:none;stroke:#000000;stroke-width:1.46500003;stroke-linecap:butt;stroke-linejoin:miter;stroke-miterlimit:4;stroke-dasharray:none;stroke-opacity:1"
       inkscape:connector-curvature="0" />
    <path
       id="path47"
       d="m 113.62909,124.92634 c 0,0 -1.37016,-0.14174 -1.74814,0.37797 -0.37798,0.51972 -0.66146,0.18899 -1.65365,2.78758 -0.99218,2.59859 -0.80319,13.37091 -0.80319,13.37091 l 0.14174,7.55952 v 2.4096 c 0,0 -0.23624,1.41741 -1.08668,2.36235 -0.85045,0.94494 -1.705,3.42376 -1.705,3.42376"
       style="fill:none;stroke:#000000;stroke-width:1.46500003;stroke-linecap:butt;stroke-linejoin:miter;stroke-miterlimit:4;stroke-dasharray:none;stroke-opacity:1"
       inkscape:connector-curvature="0" />
    <path
       id="path49"
       d="m 75.595244,145.05357 c 0,0 0.339865,0.83018 -0.944949,3.59077"
       style="fill:none;stroke:#000000;stroke-width:1.46500003;stroke-linecap:butt;stroke-linejoin:miter;stroke-miterlimit:4;stroke-dasharray:none;stroke-opacity:1"
       inkscape:connector-curvature="0" />
    <path
       id="path53"
       d="m 85.989582,150.53423 6.992559,1.32291 c 0,0 3.023809,3.40179 -1.133927,4.53571 -4.157739,1.13393 -7.9375,-1.13392 -7.9375,-1.13392 0,0 -2.834823,-3.59078 2.078868,-4.7247 z"
       style="fill:none;stroke:#000000;stroke-width:1.46500003;stroke-linecap:butt;stroke-linejoin:miter;stroke-miterlimit:4;stroke-dasharray:none;stroke-opacity:1"
       inkscape:connector-curvature="0" />
    <path
       id="path59"
       d="m 81.642856,161.87351 6.236608,1.32292 c 0,0 3.779761,2.64583 -1.13393,3.96875 -4.913691,1.32291 -8.882441,-1.88989 -8.882441,-1.88989 0,0 -1.133927,-4.34672 3.779763,-3.40178 z"
       style="fill:none;stroke:#000000;stroke-width:1.46500003;stroke-linecap:butt;stroke-linejoin:miter;stroke-miterlimit:4;stroke-dasharray:none;stroke-opacity:1"
       inkscape:connector-curvature="0" />
    <path
       id="path61"
       d="m 75.784225,170.94494 6.992559,1.32291 c 0,0 2.834822,3.59078 -2.078868,3.2128 -4.913691,-0.37797 -8.315476,-1.70089 -8.315476,-1.70089 0,0 -1.13393,-2.64583 3.401785,-2.83482 z"
       style="fill:none;stroke:#000000;stroke-width:1.46500003;stroke-linecap:butt;stroke-linejoin:miter;stroke-miterlimit:4;stroke-dasharray:none;stroke-opacity:1"
       inkscape:connector-curvature="0" />
    <path
       id="path63"
       d="m 69.169642,178.12649 6.614583,1.5119 c 0,0 4.913691,2.64583 -2.83482,1.88988 -7.748513,-0.75595 -10.016371,-2.83482 -3.779763,-3.40178 z"
       style="fill:none;stroke:#000000;stroke-width:1.46500003;stroke-linecap:butt;stroke-linejoin:miter;stroke-miterlimit:4;stroke-dasharray:none;stroke-opacity:1"
       inkscape:connector-curvature="0" />
    <path
       id="path67"
       d="m 61.799107,182.6622 -1.889882,-0.18899 1.511906,2.26786 7.181546,1.32292 c 0,0 5.291666,-0.18899 0,-1.7009 -5.291667,-1.5119 -6.80357,-1.70089 -6.80357,-1.70089 z"
       style="fill:none;stroke:#000000;stroke-width:1.46500003;stroke-linecap:butt;stroke-linejoin:miter;stroke-miterlimit:4;stroke-dasharray:none;stroke-opacity:1"
       inkscape:connector-curvature="0" />
    <path
       id="path71"
       d="m 20.268973,139.38393 c 0,0 -1.322917,0.0945 -1.606399,1.27567 -0.283482,1.18117 -0.330729,1.41741 -0.04725,2.26785 0.283482,0.85045 1.370164,1.46466 2.031622,1.51191 0.661458,0.0472 3.449033,0.7087 3.827009,0.7087 0.377976,0 1.511905,0 1.984375,-0.89769 0.472469,-0.89769 0.188989,-2.36235 0.188989,-2.36235 0,0 -0.141742,-1.08668 -0.755953,-1.51191 -0.614212,-0.42522 -5.622396,-0.99218 -5.622396,-0.99218 z"
       style="fill:none;stroke:#000000;stroke-width:1.46500003;stroke-linecap:butt;stroke-linejoin:miter;stroke-miterlimit:4;stroke-dasharray:none;stroke-opacity:1"
       inkscape:connector-curvature="0" />
  </g>
  <path
     style="fill:#00e491;fill-opacity:1;stroke:#000000;stroke-width:0.30585833;stroke-linecap:butt;stroke-linejoin:miter;stroke-miterlimit:4;stroke-dasharray:none;stroke-opacity:1;marker-end:url(#Arrow1Lend)"
     d="m 50.709142,19.970683 6.836354,25.933561"
     id="path5549"
     inkscape:connector-curvature="0" />
  <path
     style="fill:#00e491;fill-opacity:1;stroke:#000000;stroke-width:0.30592066;stroke-linecap:butt;stroke-linejoin:miter;stroke-miterlimit:4;stroke-dasharray:none;stroke-opacity:1;marker-end:url(#marker2748)"
     d="M 37.14973,133.04413 51.957504,106.96957"
     id="path6007"
     inkscape:connector-curvature="0" />
  <path
     style="fill:#00e491;fill-opacity:1;stroke:#000000;stroke-width:0.30592066;stroke-linecap:butt;stroke-linejoin:miter;stroke-miterlimit:4;stroke-dasharray:none;stroke-opacity:1;marker-end:url(#marker2798)"
     d="M 19.665954,105.52336 C 20.30977,105.3624 51.163342,92.269473 51.163342,92.269473"
     id="path6079"
     inkscape:connector-curvature="0" />
  <path
     style="fill:#00e491;fill-opacity:1;stroke:#000000;stroke-width:0.30592066;stroke-linecap:butt;stroke-linejoin:miter;stroke-miterlimit:4;stroke-dasharray:none;stroke-opacity:1;marker-end:url(#marker2698)"
     d="M 106.35997,119.68494 88.99499,91.968539"
     id="path7645"
     inkscape:connector-curvature="0" />
  <text
     xml:space="preserve"
     style="font-style:normal;font-weight:normal;font-size:3.65405512px;line-height:1.25;font-family:sans-serif;letter-spacing:0px;word-spacing:0px;fill:#000000;fill-opacity:1;stroke:none;stroke-width:0.09135137"
     x="37.793205"
     y="19.297922"
     id="text2410"
     transform="scale(1.0427673,0.95898673)"><tspan
       sodipodi:role="line"
       x="37.793205"
       y="19.297922"
       id="tspan2408"
       style="stroke-width:0.09135137"><tspan
         x="37.793205"
         y="19.297922"
         style="font-style:normal;font-variant:normal;font-weight:normal;font-stretch:normal;font-family:Keraleeyam;-inkscape-font-specification:Keraleeyam;stroke-width:0.09135137"
         id="tspan2406">Amoled Touch Screen </tspan></tspan></text>
  <text
     xml:space="preserve"
     style="font-style:normal;font-weight:normal;font-size:3.85782433px;line-height:1.25;font-family:sans-serif;letter-spacing:0px;word-spacing:0px;fill:#000000;fill-opacity:1;stroke:none;stroke-width:0.09644561"
     x="24.200251"
     y="149.71208"
     id="text2428"
     transform="scale(1.1009174,0.90833333)"><tspan
       sodipodi:role="line"
       x="24.200251"
       y="149.71208"
       id="tspan2426"
       style="stroke-width:0.09644561"><tspan
         x="24.200251"
         y="149.71208"
         style="font-style:normal;font-variant:normal;font-weight:normal;font-stretch:normal;font-family:Keraleeyam;-inkscape-font-specification:Keraleeyam;stroke-width:0.09644561"
         id="tspan2422">Ergonomic band</tspan><tspan
         dx="0"
         x="44.589455"
         y="149.71208"
         style="font-style:normal;font-variant:normal;font-weight:normal;font-stretch:normal;font-family:Keraleeyam;-inkscape-font-specification:Keraleeyam;stroke-width:0.09644561"
         id="tspan2424" /></tspan></text>
  <text
     xml:space="preserve"
     style="font-style:normal;font-weight:normal;font-size:3.85782433px;line-height:1.25;font-family:sans-serif;letter-spacing:0px;word-spacing:0px;fill:#000000;fill-opacity:1;stroke:none;stroke-width:0.09644561"
     x="5.2891145"
     y="113.92778"
     id="text2420"
     transform="scale(1.1009174,0.90833333)"><tspan
       sodipodi:role="line"
       x="0"
       y="3.4132702"
       id="tspan2414"
       style="stroke-width:0.09644561"><tspan
         x="5.2891145"
         y="113.92778"
         style="font-style:normal;font-variant:normal;font-weight:normal;font-stretch:normal;font-family:Keraleeyam;-inkscape-font-specification:Keraleeyam;stroke-width:0.09644561"
         id="tspan2412" /></tspan><tspan
       sodipodi:role="line"
       x="5.2891145"
       y="118.75006"
       id="tspan2418"
       style="stroke-width:0.09644561"><tspan
         x="5.2891145"
         y="118.75006"
         style="font-style:normal;font-variant:normal;font-weight:normal;font-stretch:normal;font-family:Keraleeyam;-inkscape-font-specification:Keraleeyam;stroke-width:0.09644561"
         id="tspan2416">Single Button input</tspan></tspan></text>
  <text
     xml:space="preserve"
     style="font-style:normal;font-weight:normal;font-size:3.85782433px;line-height:1.25;font-family:sans-serif;letter-spacing:0px;word-spacing:0px;fill:#000000;fill-opacity:1;stroke:none;stroke-width:0.09644561"
     x="91.161118"
     y="134.74348"
     id="text2436"
     transform="scale(1.1009174,0.90833333)"><tspan
       sodipodi:role="line"
       x="91.161118"
       y="134.74348"
       id="tspan2434"
       style="stroke-width:0.09644561"><tspan
         x="91.161118"
         y="134.74348"
         style="font-style:normal;font-variant:normal;font-weight:normal;font-stretch:normal;font-family:Keraleeyam;-inkscape-font-specification:Keraleeyam;stroke-width:0.09644561"
         id="tspan2430">Flexi-swatch</tspan><tspan
         dx="0"
         x="106.80339"
         y="134.74348"
         style="font-style:normal;font-variant:normal;font-weight:normal;font-stretch:normal;font-family:Keraleeyam;-inkscape-font-specification:Keraleeyam;stroke-width:0.09644561"
         id="tspan2432" /></tspan></text>
  <path
     inkscape:connector-curvature="0"
     id="path8279"
     d="M 116.86617,85.177062 70.32943,73.948808"
     style="fill:#00e491;fill-opacity:1;stroke:#000000;stroke-width:0.31875509;stroke-linecap:butt;stroke-linejoin:miter;stroke-miterlimit:4;stroke-dasharray:none;stroke-opacity:1;marker-end:url(#marker2604)" />
  <text
     xml:space="preserve"
     style="font-style:normal;font-weight:normal;font-size:3.85782433px;line-height:1.25;font-family:sans-serif;letter-spacing:0px;word-spacing:0px;fill:#000000;fill-opacity:1;stroke:none;stroke-width:0.09644561"
     x="106.01987"
     y="95.217049"
     id="text2444"
     transform="scale(1.1009174,0.90833333)"><tspan
       sodipodi:role="line"
       x="106.01987"
       y="95.217049"
       id="tspan2442"
       style="stroke-width:0.09644561"><tspan
         x="106.01987"
         y="95.217049"
         style="font-style:normal;font-variant:normal;font-weight:normal;font-stretch:normal;font-family:Keraleeyam;-inkscape-font-specification:Keraleeyam;stroke-width:0.09644561"
         id="tspan2438">Rechargeable battery</tspan><tspan
         dx="0"
         x="134.14732"
         y="95.217049"
         style="font-style:normal;font-variant:normal;font-weight:normal;font-stretch:normal;font-family:Keraleeyam;-inkscape-font-specification:Keraleeyam;stroke-width:0.09644561"
         id="tspan2440" /></tspan></text>
</svg>
