<svg
   xmlns:dc="http://purl.org/dc/elements/1.1/"
   xmlns:cc="http://creativecommons.org/ns#"
   xmlns:rdf="http://www.w3.org/1999/02/22-rdf-syntax-ns#"
   xmlns:svg="http://www.w3.org/2000/svg"
   xmlns="http://www.w3.org/2000/svg"
   id="svg8"
   version="1.1"
   viewBox="0 0 210 297"
   height="297mm"
   width="210mm">
  <defs
     id="defs2" />
  <metadata
     id="metadata5">
    <rdf:RDF>
      <cc:Work
         rdf:about="">
        <dc:format>image/svg+xml</dc:format>
        <dc:type
           rdf:resource="http://purl.org/dc/dcmitype/StillImage" />
        <dc:title></dc:title>
      </cc:Work>
    </rdf:RDF>
  </metadata>
  <g
     id="layer1">
    <path
       id="path21"
       d="m 52.784823,16.277259 c 0,0 5.10268,-6.614583 9.07143,-7.181548 3.96875,-0.566962 8.69345,1.322917 8.69345,1.322917 0,0 3.77976,0.755954 6.4256,5.291666 2.64583,4.535715 4.7247,9.827382 5.29166,13.796132 0.566968,3.96875 1.700898,20.221724 1.700898,20.221724 l 0.18898,25.13542 -0.37797,20.221715 -0.18899,13.418155 c 0,0 -3.590768,30.99405 -19.654758,29.10417 -16.06399,-1.88989 -22.11161,-23.8125 -21.16667,-24.00149 0.94494,-0.18899 1.13393,-3.59077 1.13393,-3.59077 l 3.27069,-19.748335 c 0,0 -0.60136,-3.87541 -2.80633,-2.80633 -2.20498,1.06908 -2.33861,-8.151715 -2.33861,-8.151715 l -0.20045,-18.17433 c 0,0 1.13589,-15.43481 1.67043,-18.508413 0.53454,-3.073601 1.67043,-8.151722 1.67043,-8.151722 0,0 4.40995,0.668173 5.3454,-1.737252 0.93544,-2.405425 4.6104,-11.292136 4.6104,-11.292136 0,0 0.4659,-1.849906 -2.33952,-5.167858 z"
       style="fill:none;stroke:#000000;stroke-width:1.46500003;stroke-linecap:butt;stroke-linejoin:miter;stroke-miterlimit:4;stroke-dasharray:none;stroke-opacity:1" />
    <path
       id="path831"
       d="m 11.963393,21.663419 -1.03943,1.889882 4.06324,6.52009 c 0,0 -5.5751503,25.607889 -3.96875,45.924109 1.6064,20.316215 -2.2678603,28.3482 -2.2678603,28.3482 0,0 0.85045,8.69345 3.6852703,10.29985 2.83482,1.6064 18.61533,5.29167 30.2381,-0.47247"
       style="fill:none;stroke:#000000;stroke-width:1.46500003;stroke-linecap:butt;stroke-linejoin:miter;stroke-miterlimit:4;stroke-dasharray:none;stroke-opacity:1" />
    <path
       id="path833"
       d="m 11.963393,21.663417 5.10268,-11.433776 5.85863,0.188987 c 0,0 5.10268,-6.047618 16.63095,-7.748511 11.52828,-1.70089204 10.01637,6.803573 10.01637,6.803573 l -0.94494,1.322916 4.15774,5.480651"
       style="fill:none;stroke:#000000;stroke-width:1.46500003;stroke-linecap:butt;stroke-linejoin:miter;stroke-miterlimit:4;stroke-dasharray:none;stroke-opacity:1" />
    <path
       id="path835"
       d="m 22.924703,10.418628 23.67076,-0.519716 2.03162,0.897694"
       style="fill:none;stroke:#000000;stroke-width:1.46500003;stroke-linecap:butt;stroke-linejoin:miter;stroke-miterlimit:4;stroke-dasharray:none;stroke-opacity:1" />
    <path
       id="path837"
       d="m 11.963393,21.663417 30.52158,-0.56696 2.78757,1.700892 5.29167,9.543899"
       style="fill:none;stroke:#000000;stroke-width:1.46500003;stroke-linecap:butt;stroke-linejoin:miter;stroke-miterlimit:4;stroke-dasharray:none;stroke-opacity:1" />
    <path
       id="path851"
       d="m 15.969353,116.45942 c 0,0 2.60588,10.02261 7.01582,15.56845 4.40995,5.54584 10.28988,9.42125 14.09847,9.88898 3.80859,0.46771 4.87767,0.66817 4.87767,0.66817 l 9.02035,0.33409 9.95579,0.26726 7.61718,-0.0668 c 0,0 8.75308,-1.73726 14.365738,-7.81764 5.61266,-6.08038 8.35217,-11.42577 9.35443,-16.70434 1.00226,-5.27858 1.9377,-15.43482 2.00452,-22.784725 0.0668,-7.34991 0.0668,-15.702075 0.0668,-15.702075 l -0.13364,-22.98518 -0.33408,-16.036174 c 0,0 -0.66818,-10.490329 -2.60588,-15.768901 C 89.334811,20.041962 87.463931,13.894763 76.839963,6.478032 66.216003,-0.93869704 48.242133,3.872156 48.242133,3.872156"
       style="fill:none;stroke:#000000;stroke-width:1.46500003;stroke-linecap:butt;stroke-linejoin:miter;stroke-miterlimit:4;stroke-dasharray:none;stroke-opacity:1" />
    <path
       id="path853"
       d="m 54.485713,14.198391 c 0,0 6.4256,8.598958 8.22098,19.276785 1.79539,10.677824 1.57163,47.303769 1.43799,47.437409 -0.13363,0.13363 -0.80181,27.127845 -0.80181,27.127845 0,0 -4.14267,22.04974 -9.88897,24.5888"
       style="fill:none;stroke:#000000;stroke-width:1.46500003;stroke-linecap:butt;stroke-linejoin:miter;stroke-miterlimit:4;stroke-dasharray:none;stroke-opacity:1" />
    <path
       id="path855"
       d="m 11.893493,93.006525 0.66817,6.28084 -0.66817,5.612655 c 0,0 -0.26727,3.14041 1.60362,3.54132 1.87088,0.4009 7.55036,1.00226 7.55036,1.00226 0,0 0.60136,-3.00678 1.46998,-3.00678 0.86863,0 6.68174,0.0668 6.68174,0.0668 0,0 -1.26953,2.53906 -1.06908,3.34087 0.20046,0.80181 8.61945,-0.66817 8.61945,-0.66817 0,0 2.47224,-0.66818 3.67495,-8.95353 1.20271,-8.285355 2.20497,-12.428025 2.60588,-12.628485"
       style="fill:none;stroke:#000000;stroke-width:1.46500003;stroke-linecap:butt;stroke-linejoin:miter;stroke-miterlimit:4;stroke-dasharray:none;stroke-opacity:1" />
    <path
       id="path857"
       d="m 63.476513,37.080383 18.57523,-0.133633 7.750818,-2.138159 2.67269,-1.336347"
       style="fill:none;stroke:#000000;stroke-width:1.46500003;stroke-linecap:butt;stroke-linejoin:miter;stroke-miterlimit:4;stroke-dasharray:none;stroke-opacity:1" />
    <path
       id="path859"
       d="m 63.342873,108.04043 20.247008,0.46301 6.61358,1.80878 3.0736,1.46999"
       style="fill:none;stroke:#000000;stroke-width:1.46500003;stroke-linecap:butt;stroke-linejoin:miter;stroke-miterlimit:4;stroke-dasharray:none;stroke-opacity:1" />
    <path
       id="path861"
       d="m 89.802561,34.808589 c 0,0 2.13815,19.510681 1.60361,31.671441 -0.53454,12.16076 0.80181,40.22404 -1.20271,43.83219"
       style="fill:none;stroke:#000000;stroke-width:1.46500003;stroke-linecap:butt;stroke-linejoin:miter;stroke-miterlimit:4;stroke-dasharray:none;stroke-opacity:1" />
    <path
       id="path867"
       d="m 26.043013,27.333064 h 4.06324 c 0,0 1.70089,0.377976 1.70089,1.606397 0,1.228423 -1.98437,2.267857 -2.64583,2.267857 -0.66146,0 -4.34673,0.0945 -4.34673,0.0945 0,0 -1.6064,-0.94494 -0.85044,-2.173364 0.75595,-1.228423 1.03943,-1.41741 2.07887,-1.795386 z"
       style="fill:none;stroke:#000000;stroke-width:1.46500003;stroke-linecap:butt;stroke-linejoin:miter;stroke-miterlimit:4;stroke-dasharray:none;stroke-opacity:1" />
    <path
       id="path869"
       d="m 22.830213,38.672349 c 0.37797,0.09449 4.63021,0.09449 4.63021,0.09449 0,0 2.17336,0.661458 1.98437,2.173364 -0.18899,1.511903 -1.22842,2.740327 -2.64583,2.551337 -1.41741,-0.188987 -4.44122,-0.09449 -4.44122,-0.09449 0,0 -1.88988,-0.755952 -1.22842,-2.55134 0.66145,-1.795386 1.70089,-2.173362 1.70089,-2.173361 z"
       style="fill:none;stroke:#000000;stroke-width:1.46500003;stroke-linecap:butt;stroke-linejoin:miter;stroke-miterlimit:4;stroke-dasharray:none;stroke-opacity:1" />
    <path
       id="path871"
       d="m 21.223813,52.0905 5.19717,-0.0945 c 0,0 2.55134,0.37797 1.79539,2.26786 -0.75595,1.88988 -1.98438,1.98437 -4.06325,1.98437 -2.07886,0 -2.26785,0 -2.26785,0 0,0 -1.98438,-0.37797 -1.98438,-1.6064 0,-1.22842 1.32292,-2.55134 1.32292,-2.55134 z"
       style="fill:none;stroke:#000000;stroke-width:1.46500003;stroke-linecap:butt;stroke-linejoin:miter;stroke-miterlimit:4;stroke-dasharray:none;stroke-opacity:1" />
    <path
       id="path875"
       d="m 21.223813,65.03619 h 4.63021 c 0,0 1.79538,0.56696 1.79538,1.98437 0,1.41741 -0.37797,2.55134 -2.92931,2.55134 -2.55134,0 -2.64583,0 -2.64583,0 0,0 -2.55134,-0.0945 -2.83483,-1.98437 -0.28348,-1.88988 1.98438,-2.55134 1.98438,-2.55134 z"
       style="fill:none;stroke:#000000;stroke-width:1.46500003;stroke-linecap:butt;stroke-linejoin:miter;stroke-miterlimit:4;stroke-dasharray:none;stroke-opacity:1" />
    <path
       id="path881"
       d="m 21.318303,78.26536 h 4.8192 c 0,0 1.32292,0.37797 1.5119,1.88987 0.18899,1.511905 -0.85044,2.740325 -2.74032,2.645835 -1.88989,-0.0945 -3.87426,0 -3.87426,0 0,0 -1.6064,-0.94494 -1.41741,-1.6064 0.18899,-0.66146 -0.85044,-0.75595 1.70089,-2.929305 z"
       style="fill:none;stroke:#000000;stroke-width:1.46500003;stroke-linecap:butt;stroke-linejoin:miter;stroke-miterlimit:4;stroke-dasharray:none;stroke-opacity:1" />
    <path
       id="path883"
       d="m 21.601783,91.211035 4.8192,-0.0945 c 0,0 1.98438,0.0945 2.36235,2.07887 0.37798,1.98438 -1.5119,2.55134 -2.74032,2.45685 -1.22843,-0.0945 -4.53572,0 -4.53572,0 0,0 -1.79539,-1.32292 -1.32291,-1.98438 0.47246,-0.66145 -0.47248,-0.66145 1.4174,-2.45684 z"
       style="fill:none;stroke:#000000;stroke-width:1.46500003;stroke-linecap:butt;stroke-linejoin:miter;stroke-miterlimit:4;stroke-dasharray:none;stroke-opacity:1" />
    <path
       id="path895"
       d="m 24.455163,118.12986 c 0,0 -0.13364,0.66817 1.13589,1.60361 1.26953,0.93545 6.61492,0.33409 6.61492,0.33409 0,0 1.26953,-1.06908 0.86863,-2.13815"
       style="fill:none;stroke:#000000;stroke-width:1.46500003;stroke-linecap:butt;stroke-linejoin:miter;stroke-miterlimit:4;stroke-dasharray:none;stroke-opacity:1" />
    <path
       id="path897"
       d="m 29.466463,126.21476 4.6104,0.0668 c 0,0 1.67044,0.20045 2.60588,1.40316 0.93544,1.20271 -0.33409,2.20498 -2.13816,2.20498 -1.80407,0 -2.00452,-0.0668 -2.00452,-0.0668 0,0 -3.20723,-0.13364 -3.67495,-1.1359 -0.46773,-1.00226 -0.13364,-2.60587 0.60135,-2.47224 z"
       style="fill:none;stroke:#000000;stroke-width:1.46500003;stroke-linecap:butt;stroke-linejoin:miter;stroke-miterlimit:4;stroke-dasharray:none;stroke-opacity:1" />
    <path
       id="path899"
       d="m 33.809593,134.50011 4.81085,-0.0668 c 0,0 1.93771,0.26727 2.47225,0.93544 0.53453,0.66817 2.00452,1.87089 -0.33409,1.87089 -2.33861,0 -4.81085,-0.0668 -4.81085,-0.0668 0,0 -1.73725,-0.26727 -2.27179,-1.00226 -0.53454,-0.73499 0.13363,-1.67044 0.13363,-1.67044 z"
       style="fill:none;stroke:#000000;stroke-width:1.46500003;stroke-linecap:butt;stroke-linejoin:miter;stroke-miterlimit:4;stroke-dasharray:none;stroke-opacity:1" />
    <path
       id="path905"
       d="m 45.359533,22.709089 -1.23735,1.782127 c 0,0 -2.33382,6.225824 -3.73411,15.149505 -1.4003,8.923679 -2.00043,21.306169 -2.0671,24.903299 -0.0667,3.59714 -0.13337,18.054895 -0.13337,18.054895 0,0 0.20004,13.55845 1.80038,18.331585"
       style="fill:none;stroke:#000000;stroke-width:1.48910427;stroke-linecap:butt;stroke-linejoin:miter;stroke-miterlimit:4;stroke-dasharray:none;stroke-opacity:1" />
  </g>
</svg>
