<svg width="382" height="238" viewBox="0 0 382 238" fill="none" xmlns="http://www.w3.org/2000/svg">
<g id="main_outline" filter="url(#filter0_d)">
<path d="M155.832 32.7363C155.832 32.7363 146.745 35.5426 141.667 43.5607C136.589 51.5788 131.243 78.3057 131.243 78.3057L126.299 103.429L120.285 141.916L116.009 172.251C116.009 172.251 115.207 186.817 116.009 187.218C116.811 187.619 114.272 192.831 122.156 205.927C130.041 219.023 147.28 221.429 147.28 221.429L172.269 227.709C172.269 227.709 182.158 231.05 196.19 222.498C210.222 213.945 218.774 187.218 218.774 187.218C218.774 187.218 221.781 186.483 222.984 184.011C224.186 181.539 225.99 176.126 225.99 176.126L226.659 155.948C226.659 155.948 230.534 134.098 230.935 129.822C231.336 125.546 232.939 112.048 232.873 110.579C232.806 109.109 233.474 102.761 233.541 100.556C233.608 98.3509 233.608 91.4687 233.608 91.4687C233.608 91.4687 236.815 88.1279 238.151 85.9229C239.488 83.7179 238.084 67.6149 238.084 67.6149L236.614 65.744L231.67 65.3431C231.67 65.3431 231.937 63.3386 229.732 60.3318C227.527 57.3251 224.587 55.1201 224.587 55.1201C224.587 55.1201 222.316 49.9083 219.91 46.5006C217.505 43.0929 213.162 38.0816 206.413 35.2753C199.664 32.469 195.856 31.8008 177.214 31.8008C158.572 31.8008 155.832 32.8031 155.832 32.7363V32.7363Z" stroke="white" stroke-width="1.465"/>
</g>
<g id="screen_outline" filter="url(#filter1_d)">
<path d="M137.658 51.4451L172.403 53.8506L178.016 57.0578C178.016 57.0578 170.799 88.5956 167.325 111.046C163.85 133.497 159.307 165.035 157.97 177.062C156.634 189.089 156.901 189.356 156.901 189.356L149.15 191.227L115.475 183.744" stroke="white" stroke-width="1.465"/>
</g>
<g id="inner_outline" filter="url(#filter2_d)">
<path id="path23" d="M185.516 65.6295C185.516 65.6295 182.115 79.2366 180.225 90.0089C178.335 100.781 174.744 121.381 174.744 121.381L171.342 143.682L167.562 173.731C167.562 173.731 165.673 186.393 166.24 192.062C166.807 197.732 169.074 206.426 169.074 206.426C169.074 206.426 177.012 200.945 181.926 189.795C186.839 178.644 186.65 178.644 186.65 178.644C186.65 178.644 184.76 176.754 184.949 172.597C185.138 168.439 185.516 154.643 185.516 154.643L185.894 150.107C185.894 150.107 186.65 148.784 188.918 148.595C191.186 148.406 191.753 151.241 194.399 131.964C197.045 112.688 197.234 90.5759 197.234 90.5759L192.698 88.875L189.863 72.622C189.863 72.622 190.052 69.9762 191.942 68.6533C193.832 67.3304 193.832 66.9524 193.832 66.9524C193.832 66.9524 192.131 59.3929 189.674 57.125C187.217 54.8571 185.516 65.6295 185.516 65.6295Z" stroke="white" stroke-width="1.465"/>
<path id="path29" d="M204.604 34.7299C204.604 34.7299 201.013 33.3125 194.777 37.2813C188.54 41.25 181.926 58.5424 181.548 60.2433C181.17 61.9442 172.804 101.692 171.601 108.374C170.398 115.055 164.652 153.943 164.652 153.943L161.178 184.946C161.178 184.946 159.975 197.642 163.048 209.535C166.122 221.429 174.274 226.373 177.347 227.175C180.421 227.977 180.421 228.11 180.421 228.11" stroke="white" stroke-width="1.465"/>
<path id="path31" d="M193.384 32.0681C193.384 32.0681 184.831 33.1372 181.089 37.2798C177.347 41.4225 175.209 44.4961 174.274 47.3024C173.338 50.1088 172.403 53.8506 172.403 53.8506C172.403 53.8506 168.696 69.4092 166.24 81.5045C163.783 93.5997 161.893 104.939 161.893 104.939L156.79 136.311L152.821 163.525L150.365 187.338C150.365 187.338 149.798 187.149 150.176 202.835C150.554 218.521 167.562 226.269 167.562 226.269" stroke="white" stroke-width="1.465"/>
</g>
<g id="strap_outline" filter="url(#filter3_d)">
<path id="path33" d="M202.07 150.869C202.07 150.869 199.932 152.74 200.466 156.616C201.001 160.491 199.397 166.505 199.397 166.505C199.397 166.505 199.397 169.578 199.932 171.583C200.466 173.587 204.475 174.255 206.747 174.389C209.019 174.523 209.152 173.053 209.152 173.053L210.222 171.048C210.222 171.048 209.553 169.044 207.95 169.445C206.346 169.846 208.484 161.56 208.484 161.427C208.484 161.293 207.95 157.017 208.217 156.215C208.484 155.413 209.42 152.206 209.42 152.206" stroke="white" stroke-width="1.465"/>
<path id="path35" d="M190.978 148.33L202.07 150.869L209.42 152.206C209.42 152.206 223.184 153.943 223.719 153.275C224.253 152.607 226.659 155.948 226.659 155.948" stroke="white" stroke-width="1.465"/>
<path id="path39" d="M231.67 65.3431L231.804 67.2808L233.875 67.214L234.476 68.3499L231.002 73.094C231.002 73.094 230.267 74.7644 220.912 74.2298C211.558 73.6953 198.194 72.8267 198.194 72.8267C198.194 72.8267 194.319 72.4258 193.718 72.0917C193.116 71.7576 192.649 71.0226 193.651 70.0204C194.653 69.0181 194.414 69.2298 193.832 66.9524" stroke="white" stroke-width="1.465"/>
<path id="path41" d="M189.863 72.622C189.863 72.622 190.444 73.9626 192.715 74.2967C194.987 74.6308 211.357 75.633 211.357 75.633L226.258 76.3012C226.258 76.3012 230.534 76.6353 233.14 74.163C235.746 71.6908 238.084 67.6149 238.084 67.6149" stroke="white" stroke-width="1.465"/>
<path id="path43" d="M197.234 90.5759L212.493 91.736L225.523 92.471C225.523 92.471 229.866 93.0055 233.608 91.4687" stroke="white" stroke-width="1.465"/>
<path id="path45" d="M190.978 148.33C190.978 148.33 188.965 148.831 188.02 151.619C187.076 154.407 188.02 158.47 188.068 157.336C188.115 156.202 187.973 165.226 187.973 165.226L187.595 175.054L191.092 164.706L190.903 158.706L192.603 158.99L191.092 164.754" stroke="white" stroke-width="1.465"/>
<path id="path47" d="M225.629 154.926C225.629 154.926 224.259 154.785 223.881 155.304C223.503 155.824 223.219 155.493 222.227 158.092C221.235 160.69 221.424 171.463 221.424 171.463L221.566 179.022V181.432C221.566 181.432 221.33 182.849 220.479 183.794C219.629 184.739 218.774 187.218 218.774 187.218" stroke="white" stroke-width="1.465"/>
</g>
<g id="hole_outline" filter="url(#filter4_d)">
<path id="path49" d="M187.595 175.054C187.595 175.054 187.935 175.884 186.65 178.644" stroke="white" stroke-width="1.465"/>
<path id="path53" d="M197.99 180.534L204.982 181.857C204.982 181.857 208.006 185.259 203.848 186.393C199.69 187.527 195.911 185.259 195.911 185.259C195.911 185.259 193.076 181.668 197.99 180.534Z" stroke="white" stroke-width="1.465"/>
<path id="path59" d="M193.643 191.874L199.879 193.196C199.879 193.196 203.659 195.842 198.746 197.165C193.832 198.488 189.863 195.275 189.863 195.275C189.863 195.275 188.729 190.929 193.643 191.874Z" stroke="white" stroke-width="1.465"/>
<path id="path61" d="M187.784 200.945L194.777 202.268C194.777 202.268 197.612 205.859 192.698 205.481C187.784 205.103 184.382 203.78 184.382 203.78C184.382 203.78 183.249 201.134 187.784 200.945Z" stroke="white" stroke-width="1.465"/>
<path id="path63" d="M181.17 208.126L187.784 209.638C187.784 209.638 192.698 212.284 184.949 211.528C177.201 210.772 174.933 208.693 181.17 208.126Z" stroke="white" stroke-width="1.465"/>
<path id="path67" d="M173.799 212.662L171.909 212.473L173.421 214.741L180.603 216.064C180.603 216.064 185.894 215.875 180.603 214.363C175.311 212.851 173.799 212.662 173.799 212.662V212.662Z" stroke="white" stroke-width="1.465"/>
</g>
<g id="button_outline" filter="url(#filter5_d)">
<path d="M132.269 169.384C132.269 169.384 130.946 169.478 130.663 170.66C130.379 171.841 130.332 172.077 130.615 172.927C130.899 173.778 131.985 174.392 132.647 174.439C133.308 174.487 136.096 175.148 136.474 175.148C136.852 175.148 137.986 175.148 138.458 174.25C138.931 173.353 138.647 171.888 138.647 171.888C138.647 171.888 138.506 170.801 137.891 170.376C137.277 169.951 132.269 169.384 132.269 169.384H132.269Z" stroke="white" stroke-width="1.465"/>
</g>
<g id="text">
<path id="Amoled Touch Screen" d="M74.97 6.67H72.19L71.73 8H70.26L72.77 1.01H74.4L76.91 8H75.43L74.97 6.67ZM74.59 5.55L73.58 2.63L72.57 5.55H74.59ZM84.7282 2.38C85.4082 2.38 85.9549 2.59 86.3682 3.01C86.7882 3.42333 86.9982 4.00333 86.9982 4.75V8H85.5982V4.94C85.5982 4.50667 85.4882 4.17667 85.2682 3.95C85.0482 3.71667 84.7482 3.6 84.3682 3.6C83.9882 3.6 83.6849 3.71667 83.4582 3.95C83.2382 4.17667 83.1282 4.50667 83.1282 4.94V8H81.7282V4.94C81.7282 4.50667 81.6182 4.17667 81.3982 3.95C81.1782 3.71667 80.8782 3.6 80.4982 3.6C80.1115 3.6 79.8049 3.71667 79.5782 3.95C79.3582 4.17667 79.2482 4.50667 79.2482 4.94V8H77.8482V2.46H79.2482V3.13C79.4282 2.89667 79.6582 2.71333 79.9382 2.58C80.2249 2.44667 80.5382 2.38 80.8782 2.38C81.3115 2.38 81.6982 2.47333 82.0382 2.66C82.3782 2.84 82.6415 3.1 82.8282 3.44C83.0082 3.12 83.2682 2.86333 83.6082 2.67C83.9549 2.47667 84.3282 2.38 84.7282 2.38ZM90.7867 8.09C90.2534 8.09 89.7734 7.97333 89.3467 7.74C88.9201 7.5 88.5834 7.16333 88.3367 6.73C88.0967 6.29667 87.9767 5.79667 87.9767 5.23C87.9767 4.66333 88.1001 4.16333 88.3467 3.73C88.6001 3.29667 88.9434 2.96333 89.3767 2.73C89.8101 2.49 90.2934 2.37 90.8267 2.37C91.3601 2.37 91.8434 2.49 92.2767 2.73C92.7101 2.96333 93.0501 3.29667 93.2967 3.73C93.5501 4.16333 93.6767 4.66333 93.6767 5.23C93.6767 5.79667 93.5467 6.29667 93.2867 6.73C93.0334 7.16333 92.6867 7.5 92.2467 7.74C91.8134 7.97333 91.3267 8.09 90.7867 8.09ZM90.7867 6.87C91.0401 6.87 91.2767 6.81 91.4967 6.69C91.7234 6.56333 91.9034 6.37667 92.0367 6.13C92.1701 5.88333 92.2367 5.58333 92.2367 5.23C92.2367 4.70333 92.0967 4.3 91.8167 4.02C91.5434 3.73333 91.2067 3.59 90.8067 3.59C90.4067 3.59 90.0701 3.73333 89.7967 4.02C89.5301 4.3 89.3967 4.70333 89.3967 5.23C89.3967 5.75667 89.5267 6.16333 89.7867 6.45C90.0534 6.73 90.3867 6.87 90.7867 6.87ZM96.1037 0.6V8H94.7037V0.6H96.1037ZM102.637 5.11C102.637 5.31 102.624 5.49 102.597 5.65H98.5469C98.5802 6.05 98.7202 6.36333 98.9669 6.59C99.2135 6.81667 99.5169 6.93 99.8769 6.93C100.397 6.93 100.767 6.70667 100.987 6.26H102.497C102.337 6.79333 102.03 7.23333 101.577 7.58C101.124 7.92 100.567 8.09 99.9069 8.09C99.3735 8.09 98.8935 7.97333 98.4669 7.74C98.0469 7.5 97.7169 7.16333 97.4769 6.73C97.2435 6.29667 97.1269 5.79667 97.1269 5.23C97.1269 4.65667 97.2435 4.15333 97.4769 3.72C97.7102 3.28667 98.0369 2.95333 98.4569 2.72C98.8769 2.48667 99.3602 2.37 99.9069 2.37C100.434 2.37 100.904 2.48333 101.317 2.71C101.737 2.93667 102.06 3.26 102.287 3.68C102.52 4.09333 102.637 4.57 102.637 5.11ZM101.187 4.71C101.18 4.35 101.05 4.06333 100.797 3.85C100.544 3.63 100.234 3.52 99.8669 3.52C99.5202 3.52 99.2269 3.62667 98.9869 3.84C98.7535 4.04667 98.6102 4.33667 98.5569 4.71H101.187ZM103.299 5.21C103.299 4.65 103.409 4.15333 103.629 3.72C103.855 3.28667 104.162 2.95333 104.549 2.72C104.935 2.48667 105.365 2.37 105.839 2.37C106.199 2.37 106.542 2.45 106.869 2.61C107.195 2.76333 107.455 2.97 107.649 3.23V0.6H109.069V8H107.649V7.18C107.475 7.45333 107.232 7.67333 106.919 7.84C106.605 8.00667 106.242 8.09 105.829 8.09C105.362 8.09 104.935 7.97 104.549 7.73C104.162 7.49 103.855 7.15333 103.629 6.72C103.409 6.28 103.299 5.77667 103.299 5.21ZM107.659 5.23C107.659 4.89 107.592 4.6 107.459 4.36C107.325 4.11333 107.145 3.92667 106.919 3.8C106.692 3.66667 106.449 3.6 106.189 3.6C105.929 3.6 105.689 3.66333 105.469 3.79C105.249 3.91667 105.069 4.10333 104.929 4.35C104.795 4.59 104.729 4.87667 104.729 5.21C104.729 5.54333 104.795 5.83667 104.929 6.09C105.069 6.33667 105.249 6.52667 105.469 6.66C105.695 6.79333 105.935 6.86 106.189 6.86C106.449 6.86 106.692 6.79667 106.919 6.67C107.145 6.53667 107.325 6.35 107.459 6.11C107.592 5.86333 107.659 5.57 107.659 5.23ZM117.569 1.02V2.15H115.709V8H114.309V2.15H112.449V1.02H117.569ZM121.05 8.09C120.517 8.09 120.037 7.97333 119.61 7.74C119.184 7.5 118.847 7.16333 118.6 6.73C118.36 6.29667 118.24 5.79667 118.24 5.23C118.24 4.66333 118.364 4.16333 118.61 3.73C118.864 3.29667 119.207 2.96333 119.64 2.73C120.074 2.49 120.557 2.37 121.09 2.37C121.624 2.37 122.107 2.49 122.54 2.73C122.974 2.96333 123.314 3.29667 123.56 3.73C123.814 4.16333 123.94 4.66333 123.94 5.23C123.94 5.79667 123.81 6.29667 123.55 6.73C123.297 7.16333 122.95 7.5 122.51 7.74C122.077 7.97333 121.59 8.09 121.05 8.09ZM121.05 6.87C121.304 6.87 121.54 6.81 121.76 6.69C121.987 6.56333 122.167 6.37667 122.3 6.13C122.434 5.88333 122.5 5.58333 122.5 5.23C122.5 4.70333 122.36 4.3 122.08 4.02C121.807 3.73333 121.47 3.59 121.07 3.59C120.67 3.59 120.334 3.73333 120.06 4.02C119.794 4.3 119.66 4.70333 119.66 5.23C119.66 5.75667 119.79 6.16333 120.05 6.45C120.317 6.73 120.65 6.87 121.05 6.87ZM130.197 2.46V8H128.787V7.3C128.607 7.54 128.371 7.73 128.077 7.87C127.791 8.00333 127.477 8.07 127.137 8.07C126.704 8.07 126.321 7.98 125.987 7.8C125.654 7.61333 125.391 7.34333 125.197 6.99C125.011 6.63 124.917 6.20333 124.917 5.71V2.46H126.317V5.51C126.317 5.95 126.427 6.29 126.647 6.53C126.867 6.76333 127.167 6.88 127.547 6.88C127.934 6.88 128.237 6.76333 128.457 6.53C128.677 6.29 128.787 5.95 128.787 5.51V2.46H130.197ZM131.219 5.23C131.219 4.65667 131.335 4.15667 131.569 3.73C131.802 3.29667 132.125 2.96333 132.539 2.73C132.952 2.49 133.425 2.37 133.959 2.37C134.645 2.37 135.212 2.54333 135.659 2.89C136.112 3.23 136.415 3.71 136.569 4.33H135.059C134.979 4.09 134.842 3.90333 134.649 3.77C134.462 3.63 134.229 3.56 133.949 3.56C133.549 3.56 133.232 3.70667 132.999 4C132.765 4.28667 132.649 4.69667 132.649 5.23C132.649 5.75667 132.765 6.16667 132.999 6.46C133.232 6.74667 133.549 6.89 133.949 6.89C134.515 6.89 134.885 6.63667 135.059 6.13H136.569C136.415 6.73 136.112 7.20667 135.659 7.56C135.205 7.91333 134.639 8.09 133.959 8.09C133.425 8.09 132.952 7.97333 132.539 7.74C132.125 7.5 131.802 7.16667 131.569 6.74C131.335 6.30667 131.219 5.80333 131.219 5.23ZM140.714 2.38C141.134 2.38 141.508 2.47333 141.834 2.66C142.161 2.84 142.414 3.11 142.594 3.47C142.781 3.82333 142.874 4.25 142.874 4.75V8H141.474V4.94C141.474 4.5 141.364 4.16333 141.144 3.93C140.924 3.69 140.624 3.57 140.244 3.57C139.858 3.57 139.551 3.69 139.324 3.93C139.104 4.16333 138.994 4.5 138.994 4.94V8H137.594V0.6H138.994V3.15C139.174 2.91 139.414 2.72333 139.714 2.59C140.014 2.45 140.348 2.38 140.714 2.38ZM148.998 8.07C148.512 8.07 148.072 7.98667 147.678 7.82C147.292 7.65333 146.985 7.41333 146.758 7.1C146.532 6.78667 146.415 6.41667 146.408 5.99H147.908C147.928 6.27667 148.028 6.50333 148.208 6.67C148.395 6.83667 148.648 6.92 148.968 6.92C149.295 6.92 149.552 6.84333 149.738 6.69C149.925 6.53 150.018 6.32333 150.018 6.07C150.018 5.86333 149.955 5.69333 149.828 5.56C149.702 5.42667 149.542 5.32333 149.348 5.25C149.162 5.17 148.902 5.08333 148.568 4.99C148.115 4.85667 147.745 4.72667 147.458 4.6C147.178 4.46667 146.935 4.27 146.728 4.01C146.528 3.74333 146.428 3.39 146.428 2.95C146.428 2.53667 146.532 2.17667 146.738 1.87C146.945 1.56333 147.235 1.33 147.608 1.17C147.982 1.00333 148.408 0.92 148.888 0.92C149.608 0.92 150.192 1.09667 150.638 1.45C151.092 1.79667 151.342 2.28333 151.388 2.91H149.848C149.835 2.67 149.732 2.47333 149.538 2.32C149.352 2.16 149.102 2.08 148.788 2.08C148.515 2.08 148.295 2.15 148.128 2.29C147.968 2.43 147.888 2.63333 147.888 2.9C147.888 3.08667 147.948 3.24333 148.068 3.37C148.195 3.49 148.348 3.59 148.528 3.67C148.715 3.74333 148.975 3.83 149.308 3.93C149.762 4.06333 150.132 4.19667 150.418 4.33C150.705 4.46333 150.952 4.66333 151.158 4.93C151.365 5.19667 151.468 5.54667 151.468 5.98C151.468 6.35333 151.372 6.7 151.178 7.02C150.985 7.34 150.702 7.59667 150.328 7.79C149.955 7.97667 149.512 8.07 148.998 8.07ZM152.322 5.23C152.322 4.65667 152.439 4.15667 152.672 3.73C152.906 3.29667 153.229 2.96333 153.642 2.73C154.056 2.49 154.529 2.37 155.062 2.37C155.749 2.37 156.316 2.54333 156.762 2.89C157.216 3.23 157.519 3.71 157.672 4.33H156.162C156.082 4.09 155.946 3.90333 155.752 3.77C155.566 3.63 155.332 3.56 155.052 3.56C154.652 3.56 154.336 3.70667 154.102 4C153.869 4.28667 153.752 4.69667 153.752 5.23C153.752 5.75667 153.869 6.16667 154.102 6.46C154.336 6.74667 154.652 6.89 155.052 6.89C155.619 6.89 155.989 6.63667 156.162 6.13H157.672C157.519 6.73 157.216 7.20667 156.762 7.56C156.309 7.91333 155.742 8.09 155.062 8.09C154.529 8.09 154.056 7.97333 153.642 7.74C153.229 7.5 152.906 7.16667 152.672 6.74C152.439 6.30667 152.322 5.80333 152.322 5.23ZM160.098 3.32C160.278 3.02667 160.511 2.79667 160.798 2.63C161.091 2.46333 161.424 2.38 161.798 2.38V3.85H161.428C160.988 3.85 160.654 3.95333 160.428 4.16C160.208 4.36667 160.098 4.72667 160.098 5.24V8H158.698V2.46H160.098V3.32ZM167.891 5.11C167.891 5.31 167.877 5.49 167.851 5.65H163.801C163.834 6.05 163.974 6.36333 164.221 6.59C164.467 6.81667 164.771 6.93 165.131 6.93C165.651 6.93 166.021 6.70667 166.241 6.26H167.751C167.591 6.79333 167.284 7.23333 166.831 7.58C166.377 7.92 165.821 8.09 165.161 8.09C164.627 8.09 164.147 7.97333 163.721 7.74C163.301 7.5 162.971 7.16333 162.731 6.73C162.497 6.29667 162.381 5.79667 162.381 5.23C162.381 4.65667 162.497 4.15333 162.731 3.72C162.964 3.28667 163.291 2.95333 163.711 2.72C164.131 2.48667 164.614 2.37 165.161 2.37C165.687 2.37 166.157 2.48333 166.571 2.71C166.991 2.93667 167.314 3.26 167.541 3.68C167.774 4.09333 167.891 4.57 167.891 5.11ZM166.441 4.71C166.434 4.35 166.304 4.06333 166.051 3.85C165.797 3.63 165.487 3.52 165.121 3.52C164.774 3.52 164.481 3.62667 164.241 3.84C164.007 4.04667 163.864 4.33667 163.811 4.71H166.441ZM174.063 5.11C174.063 5.31 174.049 5.49 174.023 5.65H169.973C170.006 6.05 170.146 6.36333 170.393 6.59C170.639 6.81667 170.943 6.93 171.303 6.93C171.823 6.93 172.193 6.70667 172.413 6.26H173.923C173.763 6.79333 173.456 7.23333 173.003 7.58C172.549 7.92 171.993 8.09 171.333 8.09C170.799 8.09 170.319 7.97333 169.893 7.74C169.473 7.5 169.143 7.16333 168.903 6.73C168.669 6.29667 168.553 5.79667 168.553 5.23C168.553 4.65667 168.669 4.15333 168.903 3.72C169.136 3.28667 169.463 2.95333 169.883 2.72C170.303 2.48667 170.786 2.37 171.333 2.37C171.859 2.37 172.329 2.48333 172.743 2.71C173.163 2.93667 173.486 3.26 173.713 3.68C173.946 4.09333 174.063 4.57 174.063 5.11ZM172.613 4.71C172.606 4.35 172.476 4.06333 172.223 3.85C171.969 3.63 171.659 3.52 171.293 3.52C170.946 3.52 170.653 3.62667 170.413 3.84C170.179 4.04667 170.036 4.33667 169.983 4.71H172.613ZM178.155 2.38C178.815 2.38 179.348 2.59 179.755 3.01C180.161 3.42333 180.365 4.00333 180.365 4.75V8H178.965V4.94C178.965 4.5 178.855 4.16333 178.635 3.93C178.415 3.69 178.115 3.57 177.735 3.57C177.348 3.57 177.041 3.69 176.815 3.93C176.595 4.16333 176.485 4.5 176.485 4.94V8H175.085V2.46H176.485V3.15C176.671 2.91 176.908 2.72333 177.195 2.59C177.488 2.45 177.808 2.38 178.155 2.38Z" fill="white"/>
<path id="Single Navigation Button" d="M3.1 220.07C2.61333 220.07 2.17333 219.987 1.78 219.82C1.39333 219.653 1.08667 219.413 0.86 219.1C0.633333 218.787 0.516667 218.417 0.51 217.99H2.01C2.03 218.277 2.13 218.503 2.31 218.67C2.49667 218.837 2.75 218.92 3.07 218.92C3.39667 218.92 3.65333 218.843 3.84 218.69C4.02667 218.53 4.12 218.323 4.12 218.07C4.12 217.863 4.05667 217.693 3.93 217.56C3.80333 217.427 3.64333 217.323 3.45 217.25C3.26333 217.17 3.00333 217.083 2.67 216.99C2.21667 216.857 1.84667 216.727 1.56 216.6C1.28 216.467 1.03667 216.27 0.83 216.01C0.63 215.743 0.53 215.39 0.53 214.95C0.53 214.537 0.633333 214.177 0.84 213.87C1.04667 213.563 1.33667 213.33 1.71 213.17C2.08333 213.003 2.51 212.92 2.99 212.92C3.71 212.92 4.29333 213.097 4.74 213.45C5.19333 213.797 5.44333 214.283 5.49 214.91H3.95C3.93667 214.67 3.83333 214.473 3.64 214.32C3.45333 214.16 3.20333 214.08 2.89 214.08C2.61667 214.08 2.39667 214.15 2.23 214.29C2.07 214.43 1.99 214.633 1.99 214.9C1.99 215.087 2.05 215.243 2.17 215.37C2.29667 215.49 2.45 215.59 2.63 215.67C2.81667 215.743 3.07667 215.83 3.41 215.93C3.86333 216.063 4.23333 216.197 4.52 216.33C4.80667 216.463 5.05333 216.663 5.26 216.93C5.46667 217.197 5.57 217.547 5.57 217.98C5.57 218.353 5.47333 218.7 5.28 219.02C5.08667 219.34 4.80333 219.597 4.43 219.79C4.05667 219.977 3.61333 220.07 3.1 220.07ZM7.49375 213.8C7.24708 213.8 7.04042 213.723 6.87375 213.57C6.71375 213.41 6.63375 213.213 6.63375 212.98C6.63375 212.747 6.71375 212.553 6.87375 212.4C7.04042 212.24 7.24708 212.16 7.49375 212.16C7.74042 212.16 7.94375 212.24 8.10375 212.4C8.27042 212.553 8.35375 212.747 8.35375 212.98C8.35375 213.213 8.27042 213.41 8.10375 213.57C7.94375 213.723 7.74042 213.8 7.49375 213.8ZM8.18375 214.46V220H6.78375V214.46H8.18375ZM12.637 214.38C13.297 214.38 13.8303 214.59 14.237 215.01C14.6436 215.423 14.847 216.003 14.847 216.75V220H13.447V216.94C13.447 216.5 13.337 216.163 13.117 215.93C12.897 215.69 12.597 215.57 12.217 215.57C11.8303 215.57 11.5236 215.69 11.297 215.93C11.077 216.163 10.967 216.5 10.967 216.94V220H9.56695V214.46H10.967V215.15C11.1536 214.91 11.3903 214.723 11.677 214.59C11.9703 214.45 12.2903 214.38 12.637 214.38ZM18.3483 214.37C18.7616 214.37 19.1249 214.453 19.4383 214.62C19.7516 214.78 19.9983 214.99 20.1783 215.25V214.46H21.5883V220.04C21.5883 220.553 21.4849 221.01 21.2783 221.41C21.0716 221.817 20.7616 222.137 20.3483 222.37C19.9349 222.61 19.4349 222.73 18.8483 222.73C18.0616 222.73 17.4149 222.547 16.9083 222.18C16.4083 221.813 16.1249 221.313 16.0583 220.68H17.4483C17.5216 220.933 17.6783 221.133 17.9183 221.28C18.1649 221.433 18.4616 221.51 18.8083 221.51C19.2149 221.51 19.5449 221.387 19.7983 221.14C20.0516 220.9 20.1783 220.533 20.1783 220.04V219.18C19.9983 219.44 19.7483 219.657 19.4283 219.83C19.1149 220.003 18.7549 220.09 18.3483 220.09C17.8816 220.09 17.4549 219.97 17.0683 219.73C16.6816 219.49 16.3749 219.153 16.1483 218.72C15.9283 218.28 15.8183 217.777 15.8183 217.21C15.8183 216.65 15.9283 216.153 16.1483 215.72C16.3749 215.287 16.6783 214.953 17.0583 214.72C17.4449 214.487 17.8749 214.37 18.3483 214.37ZM20.1783 217.23C20.1783 216.89 20.1116 216.6 19.9783 216.36C19.8449 216.113 19.6649 215.927 19.4383 215.8C19.2116 215.667 18.9683 215.6 18.7083 215.6C18.4483 215.6 18.2083 215.663 17.9883 215.79C17.7683 215.917 17.5883 216.103 17.4483 216.35C17.3149 216.59 17.2483 216.877 17.2483 217.21C17.2483 217.543 17.3149 217.837 17.4483 218.09C17.5883 218.337 17.7683 218.527 17.9883 218.66C18.2149 218.793 18.4549 218.86 18.7083 218.86C18.9683 218.86 19.2116 218.797 19.4383 218.67C19.6649 218.537 19.8449 218.35 19.9783 218.11C20.1116 217.863 20.1783 217.57 20.1783 217.23ZM24.3556 212.6V220H22.9556V212.6H24.3556ZM30.8888 217.11C30.8888 217.31 30.8755 217.49 30.8488 217.65H26.7988C26.8322 218.05 26.9722 218.363 27.2188 218.59C27.4655 218.817 27.7688 218.93 28.1288 218.93C28.6488 218.93 29.0188 218.707 29.2388 218.26H30.7488C30.5888 218.793 30.2822 219.233 29.8288 219.58C29.3755 219.92 28.8188 220.09 28.1588 220.09C27.6255 220.09 27.1455 219.973 26.7188 219.74C26.2988 219.5 25.9688 219.163 25.7288 218.73C25.4955 218.297 25.3788 217.797 25.3788 217.23C25.3788 216.657 25.4955 216.153 25.7288 215.72C25.9622 215.287 26.2888 214.953 26.7088 214.72C27.1288 214.487 27.6122 214.37 28.1588 214.37C28.6855 214.37 29.1555 214.483 29.5688 214.71C29.9888 214.937 30.3122 215.26 30.5388 215.68C30.7722 216.093 30.8888 216.57 30.8888 217.11ZM29.4388 216.71C29.4322 216.35 29.3022 216.063 29.0488 215.85C28.7955 215.63 28.4855 215.52 28.1188 215.52C27.7722 215.52 27.4788 215.627 27.2388 215.84C27.0055 216.047 26.8622 216.337 26.8088 216.71H29.4388ZM40.2635 220H38.8635L35.6935 215.21V220H34.2935V213.01H35.6935L38.8635 217.81V213.01H40.2635V220ZM41.287 217.21C41.287 216.65 41.397 216.153 41.617 215.72C41.8437 215.287 42.147 214.953 42.527 214.72C42.9137 214.487 43.3437 214.37 43.817 214.37C44.2304 214.37 44.5904 214.453 44.897 214.62C45.2104 214.787 45.4604 214.997 45.647 215.25V214.46H47.057V220H45.647V219.19C45.467 219.45 45.217 219.667 44.897 219.84C44.5837 220.007 44.2204 220.09 43.807 220.09C43.3404 220.09 42.9137 219.97 42.527 219.73C42.147 219.49 41.8437 219.153 41.617 218.72C41.397 218.28 41.287 217.777 41.287 217.21ZM45.647 217.23C45.647 216.89 45.5804 216.6 45.447 216.36C45.3137 216.113 45.1337 215.927 44.907 215.8C44.6804 215.667 44.437 215.6 44.177 215.6C43.917 215.6 43.677 215.663 43.457 215.79C43.237 215.917 43.057 216.103 42.917 216.35C42.7837 216.59 42.717 216.877 42.717 217.21C42.717 217.543 42.7837 217.837 42.917 218.09C43.057 218.337 43.237 218.527 43.457 218.66C43.6837 218.793 43.9237 218.86 44.177 218.86C44.437 218.86 44.6804 218.797 44.907 218.67C45.1337 218.537 45.3137 218.35 45.447 218.11C45.5804 217.863 45.647 217.57 45.647 217.23ZM50.7344 218.71L52.1344 214.46H53.6244L51.5744 220H49.8744L47.8344 214.46H49.3344L50.7344 218.71ZM55.1207 213.8C54.874 213.8 54.6674 213.723 54.5007 213.57C54.3407 213.41 54.2607 213.213 54.2607 212.98C54.2607 212.747 54.3407 212.553 54.5007 212.4C54.6674 212.24 54.874 212.16 55.1207 212.16C55.3674 212.16 55.5707 212.24 55.7307 212.4C55.8974 212.553 55.9807 212.747 55.9807 212.98C55.9807 213.213 55.8974 213.41 55.7307 213.57C55.5707 213.723 55.3674 213.8 55.1207 213.8ZM55.8107 214.46V220H54.4107V214.46H55.8107ZM59.3639 214.37C59.7772 214.37 60.1406 214.453 60.4539 214.62C60.7672 214.78 61.0139 214.99 61.1939 215.25V214.46H62.6039V220.04C62.6039 220.553 62.5006 221.01 62.2939 221.41C62.0872 221.817 61.7772 222.137 61.3639 222.37C60.9506 222.61 60.4506 222.73 59.8639 222.73C59.0772 222.73 58.4306 222.547 57.9239 222.18C57.4239 221.813 57.1406 221.313 57.0739 220.68H58.4639C58.5372 220.933 58.6939 221.133 58.9339 221.28C59.1806 221.433 59.4772 221.51 59.8239 221.51C60.2306 221.51 60.5606 221.387 60.8139 221.14C61.0672 220.9 61.1939 220.533 61.1939 220.04V219.18C61.0139 219.44 60.7639 219.657 60.4439 219.83C60.1306 220.003 59.7706 220.09 59.3639 220.09C58.8972 220.09 58.4706 219.97 58.0839 219.73C57.6972 219.49 57.3906 219.153 57.1639 218.72C56.9439 218.28 56.8339 217.777 56.8339 217.21C56.8339 216.65 56.9439 216.153 57.1639 215.72C57.3906 215.287 57.6939 214.953 58.0739 214.72C58.4606 214.487 58.8906 214.37 59.3639 214.37ZM61.1939 217.23C61.1939 216.89 61.1272 216.6 60.9939 216.36C60.8606 216.113 60.6806 215.927 60.4539 215.8C60.2272 215.667 59.9839 215.6 59.7239 215.6C59.4639 215.6 59.2239 215.663 59.0039 215.79C58.7839 215.917 58.6039 216.103 58.4639 216.35C58.3306 216.59 58.2639 216.877 58.2639 217.21C58.2639 217.543 58.3306 217.837 58.4639 218.09C58.6039 218.337 58.7839 218.527 59.0039 218.66C59.2306 218.793 59.4706 218.86 59.7239 218.86C59.9839 218.86 60.2272 218.797 60.4539 218.67C60.6806 218.537 60.8606 218.35 60.9939 218.11C61.1272 217.863 61.1939 217.57 61.1939 217.23ZM63.6112 217.21C63.6112 216.65 63.7212 216.153 63.9412 215.72C64.1679 215.287 64.4713 214.953 64.8513 214.72C65.2379 214.487 65.6679 214.37 66.1413 214.37C66.5546 214.37 66.9146 214.453 67.2213 214.62C67.5346 214.787 67.7846 214.997 67.9713 215.25V214.46H69.3813V220H67.9713V219.19C67.7913 219.45 67.5413 219.667 67.2213 219.84C66.9079 220.007 66.5446 220.09 66.1313 220.09C65.6646 220.09 65.2379 219.97 64.8513 219.73C64.4713 219.49 64.1679 219.153 63.9412 218.72C63.7212 218.28 63.6112 217.777 63.6112 217.21ZM67.9713 217.23C67.9713 216.89 67.9046 216.6 67.7713 216.36C67.6379 216.113 67.4579 215.927 67.2313 215.8C67.0046 215.667 66.7613 215.6 66.5013 215.6C66.2413 215.6 66.0013 215.663 65.7812 215.79C65.5613 215.917 65.3813 216.103 65.2413 216.35C65.1079 216.59 65.0413 216.877 65.0413 217.21C65.0413 217.543 65.1079 217.837 65.2413 218.09C65.3813 218.337 65.5613 218.527 65.7812 218.66C66.0079 218.793 66.2479 218.86 66.5013 218.86C66.7613 218.86 67.0046 218.797 67.2313 218.67C67.4579 218.537 67.6379 218.35 67.7713 218.11C67.9046 217.863 67.9713 217.57 67.9713 217.23ZM72.3786 215.61V218.29C72.3786 218.477 72.4219 218.613 72.5086 218.7C72.6019 218.78 72.7553 218.82 72.9686 218.82H73.6186V220H72.7386C71.5586 220 70.9686 219.427 70.9686 218.28V215.61H70.3086V214.46H70.9686V213.09H72.3786V214.46H73.6186V215.61H72.3786ZM75.3355 213.8C75.0889 213.8 74.8822 213.723 74.7155 213.57C74.5555 213.41 74.4755 213.213 74.4755 212.98C74.4755 212.747 74.5555 212.553 74.7155 212.4C74.8822 212.24 75.0889 212.16 75.3355 212.16C75.5822 212.16 75.7855 212.24 75.9455 212.4C76.1122 212.553 76.1955 212.747 76.1955 212.98C76.1955 213.213 76.1122 213.41 75.9455 213.57C75.7855 213.723 75.5822 213.8 75.3355 213.8ZM76.0255 214.46V220H74.6255V214.46H76.0255ZM79.8688 220.09C79.3354 220.09 78.8554 219.973 78.4288 219.74C78.0021 219.5 77.6654 219.163 77.4188 218.73C77.1788 218.297 77.0588 217.797 77.0588 217.23C77.0588 216.663 77.1821 216.163 77.4288 215.73C77.6821 215.297 78.0254 214.963 78.4588 214.73C78.8921 214.49 79.3754 214.37 79.9088 214.37C80.4421 214.37 80.9254 214.49 81.3588 214.73C81.7921 214.963 82.1321 215.297 82.3788 215.73C82.6321 216.163 82.7588 216.663 82.7588 217.23C82.7588 217.797 82.6288 218.297 82.3687 218.73C82.1154 219.163 81.7688 219.5 81.3288 219.74C80.8954 219.973 80.4088 220.09 79.8688 220.09ZM79.8688 218.87C80.1221 218.87 80.3588 218.81 80.5788 218.69C80.8054 218.563 80.9854 218.377 81.1188 218.13C81.2521 217.883 81.3188 217.583 81.3188 217.23C81.3188 216.703 81.1788 216.3 80.8988 216.02C80.6254 215.733 80.2888 215.59 79.8888 215.59C79.4888 215.59 79.1521 215.733 78.8788 216.02C78.6121 216.3 78.4788 216.703 78.4788 217.23C78.4788 217.757 78.6088 218.163 78.8688 218.45C79.1354 218.73 79.4688 218.87 79.8688 218.87ZM86.8557 214.38C87.5157 214.38 88.049 214.59 88.4557 215.01C88.8624 215.423 89.0657 216.003 89.0657 216.75V220H87.6657V216.94C87.6657 216.5 87.5557 216.163 87.3357 215.93C87.1157 215.69 86.8157 215.57 86.4357 215.57C86.049 215.57 85.7424 215.69 85.5157 215.93C85.2957 216.163 85.1857 216.5 85.1857 216.94V220H83.7857V214.46H85.1857V215.15C85.3724 214.91 85.609 214.723 85.8957 214.59C86.189 214.45 86.509 214.38 86.8557 214.38ZM96.7398 216.42C97.1332 216.493 97.4565 216.69 97.7098 217.01C97.9632 217.33 98.0898 217.697 98.0898 218.11C98.0898 218.483 97.9965 218.813 97.8098 219.1C97.6298 219.38 97.3665 219.6 97.0198 219.76C96.6732 219.92 96.2632 220 95.7898 220H92.7798V213.02H95.6598C96.1332 213.02 96.5398 213.097 96.8798 213.25C97.2265 213.403 97.4865 213.617 97.6598 213.89C97.8398 214.163 97.9298 214.473 97.9298 214.82C97.9298 215.227 97.8198 215.567 97.5998 215.84C97.3865 216.113 97.0998 216.307 96.7398 216.42ZM94.1798 215.9H95.4598C95.7932 215.9 96.0498 215.827 96.2298 215.68C96.4098 215.527 96.4998 215.31 96.4998 215.03C96.4998 214.75 96.4098 214.533 96.2298 214.38C96.0498 214.227 95.7932 214.15 95.4598 214.15H94.1798V215.9ZM95.5898 218.86C95.9298 218.86 96.1932 218.78 96.3798 218.62C96.5732 218.46 96.6698 218.233 96.6698 217.94C96.6698 217.64 96.5698 217.407 96.3698 217.24C96.1698 217.067 95.8998 216.98 95.5598 216.98H94.1798V218.86H95.5898ZM104.436 214.46V220H103.026V219.3C102.846 219.54 102.609 219.73 102.316 219.87C102.029 220.003 101.716 220.07 101.376 220.07C100.942 220.07 100.559 219.98 100.226 219.8C99.8923 219.613 99.629 219.343 99.4356 218.99C99.249 218.63 99.1556 218.203 99.1556 217.71V214.46H100.556V217.51C100.556 217.95 100.666 218.29 100.886 218.53C101.106 218.763 101.406 218.88 101.786 218.88C102.172 218.88 102.476 218.763 102.696 218.53C102.916 218.29 103.026 217.95 103.026 217.51V214.46H104.436ZM107.447 215.61V218.29C107.447 218.477 107.49 218.613 107.577 218.7C107.67 218.78 107.824 218.82 108.037 218.82H108.687V220H107.807C106.627 220 106.037 219.427 106.037 218.28V215.61H105.377V214.46H106.037V213.09H107.447V214.46H108.687V215.61H107.447ZM111.324 215.61V218.29C111.324 218.477 111.367 218.613 111.454 218.7C111.547 218.78 111.701 218.82 111.914 218.82H112.564V220H111.684C110.504 220 109.914 219.427 109.914 218.28V215.61H109.254V214.46H109.914V213.09H111.324V214.46H112.564V215.61H111.324ZM116.031 220.09C115.498 220.09 115.018 219.973 114.591 219.74C114.164 219.5 113.828 219.163 113.581 218.73C113.341 218.297 113.221 217.797 113.221 217.23C113.221 216.663 113.344 216.163 113.591 215.73C113.844 215.297 114.188 214.963 114.621 214.73C115.054 214.49 115.538 214.37 116.071 214.37C116.604 214.37 117.088 214.49 117.521 214.73C117.954 214.963 118.294 215.297 118.541 215.73C118.794 216.163 118.921 216.663 118.921 217.23C118.921 217.797 118.791 218.297 118.531 218.73C118.278 219.163 117.931 219.5 117.491 219.74C117.058 219.973 116.571 220.09 116.031 220.09ZM116.031 218.87C116.284 218.87 116.521 218.81 116.741 218.69C116.968 218.563 117.148 218.377 117.281 218.13C117.414 217.883 117.481 217.583 117.481 217.23C117.481 216.703 117.341 216.3 117.061 216.02C116.788 215.733 116.451 215.59 116.051 215.59C115.651 215.59 115.314 215.733 115.041 216.02C114.774 216.3 114.641 216.703 114.641 217.23C114.641 217.757 114.771 218.163 115.031 218.45C115.298 218.73 115.631 218.87 116.031 218.87ZM123.018 214.38C123.678 214.38 124.211 214.59 124.618 215.01C125.024 215.423 125.228 216.003 125.228 216.75V220H123.828V216.94C123.828 216.5 123.718 216.163 123.498 215.93C123.278 215.69 122.978 215.57 122.598 215.57C122.211 215.57 121.904 215.69 121.678 215.93C121.458 216.163 121.348 216.5 121.348 216.94V220H119.948V214.46H121.348V215.15C121.534 214.91 121.771 214.723 122.058 214.59C122.351 214.45 122.671 214.38 123.018 214.38Z" fill="white"/>
<path id="Rechargeable Battery" d="M223.29 231L221.75 228.28H221.09V231H219.69V224.02H222.31C222.85 224.02 223.31 224.117 223.69 224.31C224.07 224.497 224.353 224.753 224.54 225.08C224.733 225.4 224.83 225.76 224.83 226.16C224.83 226.62 224.697 227.037 224.43 227.41C224.163 227.777 223.767 228.03 223.24 228.17L224.91 231H223.29ZM221.09 227.23H222.26C222.64 227.23 222.923 227.14 223.11 226.96C223.297 226.773 223.39 226.517 223.39 226.19C223.39 225.87 223.297 225.623 223.11 225.45C222.923 225.27 222.64 225.18 222.26 225.18H221.09V227.23ZM231.246 228.11C231.246 228.31 231.233 228.49 231.206 228.65H227.156C227.19 229.05 227.33 229.363 227.576 229.59C227.823 229.817 228.126 229.93 228.486 229.93C229.006 229.93 229.376 229.707 229.596 229.26H231.106C230.946 229.793 230.64 230.233 230.186 230.58C229.733 230.92 229.176 231.09 228.516 231.09C227.983 231.09 227.503 230.973 227.076 230.74C226.656 230.5 226.326 230.163 226.086 229.73C225.853 229.297 225.736 228.797 225.736 228.23C225.736 227.657 225.853 227.153 226.086 226.72C226.32 226.287 226.646 225.953 227.066 225.72C227.486 225.487 227.97 225.37 228.516 225.37C229.043 225.37 229.513 225.483 229.926 225.71C230.346 225.937 230.67 226.26 230.896 226.68C231.13 227.093 231.246 227.57 231.246 228.11ZM229.796 227.71C229.79 227.35 229.66 227.063 229.406 226.85C229.153 226.63 228.843 226.52 228.476 226.52C228.13 226.52 227.836 226.627 227.596 226.84C227.363 227.047 227.22 227.337 227.166 227.71H229.796ZM231.908 228.23C231.908 227.657 232.025 227.157 232.258 226.73C232.491 226.297 232.815 225.963 233.228 225.73C233.641 225.49 234.115 225.37 234.648 225.37C235.335 225.37 235.901 225.543 236.348 225.89C236.801 226.23 237.105 226.71 237.258 227.33H235.748C235.668 227.09 235.531 226.903 235.338 226.77C235.151 226.63 234.918 226.56 234.638 226.56C234.238 226.56 233.921 226.707 233.688 227C233.455 227.287 233.338 227.697 233.338 228.23C233.338 228.757 233.455 229.167 233.688 229.46C233.921 229.747 234.238 229.89 234.638 229.89C235.205 229.89 235.575 229.637 235.748 229.13H237.258C237.105 229.73 236.801 230.207 236.348 230.56C235.895 230.913 235.328 231.09 234.648 231.09C234.115 231.09 233.641 230.973 233.228 230.74C232.815 230.5 232.491 230.167 232.258 229.74C232.025 229.307 231.908 228.803 231.908 228.23ZM241.404 225.38C241.824 225.38 242.197 225.473 242.524 225.66C242.85 225.84 243.104 226.11 243.284 226.47C243.47 226.823 243.564 227.25 243.564 227.75V231H242.164V227.94C242.164 227.5 242.054 227.163 241.834 226.93C241.614 226.69 241.314 226.57 240.934 226.57C240.547 226.57 240.24 226.69 240.014 226.93C239.794 227.163 239.684 227.5 239.684 227.94V231H238.284V223.6H239.684V226.15C239.864 225.91 240.104 225.723 240.404 225.59C240.704 225.45 241.037 225.38 241.404 225.38ZM244.535 228.21C244.535 227.65 244.645 227.153 244.865 226.72C245.092 226.287 245.395 225.953 245.775 225.72C246.162 225.487 246.592 225.37 247.065 225.37C247.478 225.37 247.838 225.453 248.145 225.62C248.458 225.787 248.708 225.997 248.895 226.25V225.46H250.305V231H248.895V230.19C248.715 230.45 248.465 230.667 248.145 230.84C247.832 231.007 247.468 231.09 247.055 231.09C246.588 231.09 246.162 230.97 245.775 230.73C245.395 230.49 245.092 230.153 244.865 229.72C244.645 229.28 244.535 228.777 244.535 228.21ZM248.895 228.23C248.895 227.89 248.828 227.6 248.695 227.36C248.562 227.113 248.382 226.927 248.155 226.8C247.928 226.667 247.685 226.6 247.425 226.6C247.165 226.6 246.925 226.663 246.705 226.79C246.485 226.917 246.305 227.103 246.165 227.35C246.032 227.59 245.965 227.877 245.965 228.21C245.965 228.543 246.032 228.837 246.165 229.09C246.305 229.337 246.485 229.527 246.705 229.66C246.932 229.793 247.172 229.86 247.425 229.86C247.685 229.86 247.928 229.797 248.155 229.67C248.382 229.537 248.562 229.35 248.695 229.11C248.828 228.863 248.895 228.57 248.895 228.23ZM253.072 226.32C253.252 226.027 253.486 225.797 253.772 225.63C254.066 225.463 254.399 225.38 254.772 225.38V226.85H254.402C253.962 226.85 253.629 226.953 253.402 227.16C253.182 227.367 253.072 227.727 253.072 228.24V231H251.672V225.46H253.072V226.32ZM257.885 225.37C258.299 225.37 258.662 225.453 258.975 225.62C259.289 225.78 259.535 225.99 259.715 226.25V225.46H261.125V231.04C261.125 231.553 261.022 232.01 260.815 232.41C260.609 232.817 260.299 233.137 259.885 233.37C259.472 233.61 258.972 233.73 258.385 233.73C257.599 233.73 256.952 233.547 256.445 233.18C255.945 232.813 255.662 232.313 255.595 231.68H256.985C257.059 231.933 257.215 232.133 257.455 232.28C257.702 232.433 257.999 232.51 258.345 232.51C258.752 232.51 259.082 232.387 259.335 232.14C259.589 231.9 259.715 231.533 259.715 231.04V230.18C259.535 230.44 259.285 230.657 258.965 230.83C258.652 231.003 258.292 231.09 257.885 231.09C257.419 231.09 256.992 230.97 256.605 230.73C256.219 230.49 255.912 230.153 255.685 229.72C255.465 229.28 255.355 228.777 255.355 228.21C255.355 227.65 255.465 227.153 255.685 226.72C255.912 226.287 256.215 225.953 256.595 225.72C256.982 225.487 257.412 225.37 257.885 225.37ZM259.715 228.23C259.715 227.89 259.649 227.6 259.515 227.36C259.382 227.113 259.202 226.927 258.975 226.8C258.749 226.667 258.505 226.6 258.245 226.6C257.985 226.6 257.745 226.663 257.525 226.79C257.305 226.917 257.125 227.103 256.985 227.35C256.852 227.59 256.785 227.877 256.785 228.21C256.785 228.543 256.852 228.837 256.985 229.09C257.125 229.337 257.305 229.527 257.525 229.66C257.752 229.793 257.992 229.86 258.245 229.86C258.505 229.86 258.749 229.797 258.975 229.67C259.202 229.537 259.382 229.35 259.515 229.11C259.649 228.863 259.715 228.57 259.715 228.23ZM267.643 228.11C267.643 228.31 267.629 228.49 267.603 228.65H263.553C263.586 229.05 263.726 229.363 263.973 229.59C264.219 229.817 264.523 229.93 264.883 229.93C265.403 229.93 265.773 229.707 265.993 229.26H267.503C267.343 229.793 267.036 230.233 266.583 230.58C266.129 230.92 265.573 231.09 264.913 231.09C264.379 231.09 263.899 230.973 263.473 230.74C263.053 230.5 262.723 230.163 262.483 229.73C262.249 229.297 262.133 228.797 262.133 228.23C262.133 227.657 262.249 227.153 262.483 226.72C262.716 226.287 263.043 225.953 263.463 225.72C263.883 225.487 264.366 225.37 264.913 225.37C265.439 225.37 265.909 225.483 266.323 225.71C266.743 225.937 267.066 226.26 267.293 226.68C267.526 227.093 267.643 227.57 267.643 228.11ZM266.193 227.71C266.186 227.35 266.056 227.063 265.803 226.85C265.549 226.63 265.239 226.52 264.873 226.52C264.526 226.52 264.233 226.627 263.993 226.84C263.759 227.047 263.616 227.337 263.563 227.71H266.193ZM268.305 228.21C268.305 227.65 268.415 227.153 268.635 226.72C268.861 226.287 269.165 225.953 269.545 225.72C269.931 225.487 270.361 225.37 270.835 225.37C271.248 225.37 271.608 225.453 271.915 225.62C272.228 225.787 272.478 225.997 272.665 226.25V225.46H274.075V231H272.665V230.19C272.485 230.45 272.235 230.667 271.915 230.84C271.601 231.007 271.238 231.09 270.825 231.09C270.358 231.09 269.931 230.97 269.545 230.73C269.165 230.49 268.861 230.153 268.635 229.72C268.415 229.28 268.305 228.777 268.305 228.21ZM272.665 228.23C272.665 227.89 272.598 227.6 272.465 227.36C272.331 227.113 272.151 226.927 271.925 226.8C271.698 226.667 271.455 226.6 271.195 226.6C270.935 226.6 270.695 226.663 270.475 226.79C270.255 226.917 270.075 227.103 269.935 227.35C269.801 227.59 269.735 227.877 269.735 228.21C269.735 228.543 269.801 228.837 269.935 229.09C270.075 229.337 270.255 229.527 270.475 229.66C270.701 229.793 270.941 229.86 271.195 229.86C271.455 229.86 271.698 229.797 271.925 229.67C272.151 229.537 272.331 229.35 272.465 229.11C272.598 228.863 272.665 228.57 272.665 228.23ZM276.842 226.27C277.022 226.003 277.269 225.787 277.582 225.62C277.902 225.453 278.265 225.37 278.672 225.37C279.145 225.37 279.572 225.487 279.952 225.72C280.339 225.953 280.642 226.287 280.862 226.72C281.089 227.147 281.202 227.643 281.202 228.21C281.202 228.777 281.089 229.28 280.862 229.72C280.642 230.153 280.339 230.49 279.952 230.73C279.572 230.97 279.145 231.09 278.672 231.09C278.259 231.09 277.895 231.01 277.582 230.85C277.275 230.683 277.029 230.47 276.842 230.21V231H275.442V223.6H276.842V226.27ZM279.772 228.21C279.772 227.877 279.702 227.59 279.562 227.35C279.429 227.103 279.249 226.917 279.022 226.79C278.802 226.663 278.562 226.6 278.302 226.6C278.049 226.6 277.809 226.667 277.582 226.8C277.362 226.927 277.182 227.113 277.042 227.36C276.909 227.607 276.842 227.897 276.842 228.23C276.842 228.563 276.909 228.853 277.042 229.1C277.182 229.347 277.362 229.537 277.582 229.67C277.809 229.797 278.049 229.86 278.302 229.86C278.562 229.86 278.802 229.793 279.022 229.66C279.249 229.527 279.429 229.337 279.562 229.09C279.702 228.843 279.772 228.55 279.772 228.21ZM283.619 223.6V231H282.219V223.6H283.619ZM290.153 228.11C290.153 228.31 290.139 228.49 290.113 228.65H286.063C286.096 229.05 286.236 229.363 286.483 229.59C286.729 229.817 287.033 229.93 287.393 229.93C287.913 229.93 288.283 229.707 288.503 229.26H290.013C289.853 229.793 289.546 230.233 289.093 230.58C288.639 230.92 288.083 231.09 287.423 231.09C286.889 231.09 286.409 230.973 285.983 230.74C285.563 230.5 285.233 230.163 284.993 229.73C284.759 229.297 284.642 228.797 284.642 228.23C284.642 227.657 284.759 227.153 284.993 226.72C285.226 226.287 285.553 225.953 285.973 225.72C286.393 225.487 286.876 225.37 287.423 225.37C287.949 225.37 288.419 225.483 288.833 225.71C289.253 225.937 289.576 226.26 289.803 226.68C290.036 227.093 290.153 227.57 290.153 228.11ZM288.703 227.71C288.696 227.35 288.566 227.063 288.313 226.85C288.059 226.63 287.749 226.52 287.383 226.52C287.036 226.52 286.743 226.627 286.503 226.84C286.269 227.047 286.126 227.337 286.073 227.71H288.703ZM297.517 227.42C297.911 227.493 298.234 227.69 298.487 228.01C298.741 228.33 298.867 228.697 298.867 229.11C298.867 229.483 298.774 229.813 298.587 230.1C298.407 230.38 298.144 230.6 297.797 230.76C297.451 230.92 297.041 231 296.567 231H293.557V224.02H296.437C296.911 224.02 297.317 224.097 297.657 224.25C298.004 224.403 298.264 224.617 298.437 224.89C298.617 225.163 298.707 225.473 298.707 225.82C298.707 226.227 298.597 226.567 298.377 226.84C298.164 227.113 297.877 227.307 297.517 227.42ZM294.957 226.9H296.237C296.571 226.9 296.827 226.827 297.007 226.68C297.187 226.527 297.277 226.31 297.277 226.03C297.277 225.75 297.187 225.533 297.007 225.38C296.827 225.227 296.571 225.15 296.237 225.15H294.957V226.9ZM296.367 229.86C296.707 229.86 296.971 229.78 297.157 229.62C297.351 229.46 297.447 229.233 297.447 228.94C297.447 228.64 297.347 228.407 297.147 228.24C296.947 228.067 296.677 227.98 296.337 227.98H294.957V229.86H296.367ZM299.623 228.21C299.623 227.65 299.733 227.153 299.953 226.72C300.18 226.287 300.483 225.953 300.863 225.72C301.25 225.487 301.68 225.37 302.153 225.37C302.566 225.37 302.926 225.453 303.233 225.62C303.546 225.787 303.796 225.997 303.983 226.25V225.46H305.393V231H303.983V230.19C303.803 230.45 303.553 230.667 303.233 230.84C302.92 231.007 302.556 231.09 302.143 231.09C301.676 231.09 301.25 230.97 300.863 230.73C300.483 230.49 300.18 230.153 299.953 229.72C299.733 229.28 299.623 228.777 299.623 228.21ZM303.983 228.23C303.983 227.89 303.916 227.6 303.783 227.36C303.65 227.113 303.47 226.927 303.243 226.8C303.016 226.667 302.773 226.6 302.513 226.6C302.253 226.6 302.013 226.663 301.793 226.79C301.573 226.917 301.393 227.103 301.253 227.35C301.12 227.59 301.053 227.877 301.053 228.21C301.053 228.543 301.12 228.837 301.253 229.09C301.393 229.337 301.573 229.527 301.793 229.66C302.02 229.793 302.26 229.86 302.513 229.86C302.773 229.86 303.016 229.797 303.243 229.67C303.47 229.537 303.65 229.35 303.783 229.11C303.916 228.863 303.983 228.57 303.983 228.23ZM308.39 226.61V229.29C308.39 229.477 308.434 229.613 308.52 229.7C308.614 229.78 308.767 229.82 308.98 229.82H309.63V231H308.75C307.57 231 306.98 230.427 306.98 229.28V226.61H306.32V225.46H306.98V224.09H308.39V225.46H309.63V226.61H308.39ZM312.267 226.61V229.29C312.267 229.477 312.311 229.613 312.397 229.7C312.491 229.78 312.644 229.82 312.857 229.82H313.507V231H312.627C311.447 231 310.857 230.427 310.857 229.28V226.61H310.197V225.46H310.857V224.09H312.267V225.46H313.507V226.61H312.267ZM319.664 228.11C319.664 228.31 319.651 228.49 319.624 228.65H315.574C315.608 229.05 315.748 229.363 315.994 229.59C316.241 229.817 316.544 229.93 316.904 229.93C317.424 229.93 317.794 229.707 318.014 229.26H319.524C319.364 229.793 319.058 230.233 318.604 230.58C318.151 230.92 317.594 231.09 316.934 231.09C316.401 231.09 315.921 230.973 315.494 230.74C315.074 230.5 314.744 230.163 314.504 229.73C314.271 229.297 314.154 228.797 314.154 228.23C314.154 227.657 314.271 227.153 314.504 226.72C314.738 226.287 315.064 225.953 315.484 225.72C315.904 225.487 316.388 225.37 316.934 225.37C317.461 225.37 317.931 225.483 318.344 225.71C318.764 225.937 319.088 226.26 319.314 226.68C319.548 227.093 319.664 227.57 319.664 228.11ZM318.214 227.71C318.208 227.35 318.078 227.063 317.824 226.85C317.571 226.63 317.261 226.52 316.894 226.52C316.548 226.52 316.254 226.627 316.014 226.84C315.781 227.047 315.638 227.337 315.584 227.71H318.214ZM322.086 226.32C322.266 226.027 322.499 225.797 322.786 225.63C323.079 225.463 323.413 225.38 323.786 225.38V226.85H323.416C322.976 226.85 322.643 226.953 322.416 227.16C322.196 227.367 322.086 227.727 322.086 228.24V231H320.686V225.46H322.086V226.32ZM330.029 225.46L326.599 233.62H325.109L326.309 230.86L324.089 225.46H325.659L327.089 229.33L328.539 225.46H330.029Z" fill="white"/>
<path id="Flexi-Swatch" d="M303 175.02V176.15H300.09V177.94H302.32V179.05H300.09V182H298.69V175.02H303ZM305.393 174.6V182H303.993V174.6H305.393ZM311.926 179.11C311.926 179.31 311.913 179.49 311.886 179.65H307.836C307.869 180.05 308.009 180.363 308.256 180.59C308.503 180.817 308.806 180.93 309.166 180.93C309.686 180.93 310.056 180.707 310.276 180.26H311.786C311.626 180.793 311.319 181.233 310.866 181.58C310.413 181.92 309.856 182.09 309.196 182.09C308.663 182.09 308.183 181.973 307.756 181.74C307.336 181.5 307.006 181.163 306.766 180.73C306.533 180.297 306.416 179.797 306.416 179.23C306.416 178.657 306.533 178.153 306.766 177.72C306.999 177.287 307.326 176.953 307.746 176.72C308.166 176.487 308.649 176.37 309.196 176.37C309.723 176.37 310.193 176.483 310.606 176.71C311.026 176.937 311.349 177.26 311.576 177.68C311.809 178.093 311.926 178.57 311.926 179.11ZM310.476 178.71C310.469 178.35 310.339 178.063 310.086 177.85C309.833 177.63 309.523 177.52 309.156 177.52C308.809 177.52 308.516 177.627 308.276 177.84C308.043 178.047 307.899 178.337 307.846 178.71H310.476ZM316.008 182L314.868 180.28L313.858 182H312.358L314.168 179.22L312.338 176.46H313.918L315.048 178.17L316.068 176.46H317.568L315.748 179.22L317.588 182H316.008ZM319.058 175.8C318.812 175.8 318.605 175.723 318.438 175.57C318.278 175.41 318.198 175.213 318.198 174.98C318.198 174.747 318.278 174.553 318.438 174.4C318.605 174.24 318.812 174.16 319.058 174.16C319.305 174.16 319.508 174.24 319.668 174.4C319.835 174.553 319.918 174.747 319.918 174.98C319.918 175.213 319.835 175.41 319.668 175.57C319.508 175.723 319.305 175.8 319.058 175.8ZM319.748 176.46V182H318.348V176.46H319.748ZM325.391 177.84V179.02H321.151V177.84H325.391ZM329.371 182.07C328.885 182.07 328.445 181.987 328.051 181.82C327.665 181.653 327.358 181.413 327.131 181.1C326.905 180.787 326.788 180.417 326.781 179.99H328.281C328.301 180.277 328.401 180.503 328.581 180.67C328.768 180.837 329.021 180.92 329.341 180.92C329.668 180.92 329.925 180.843 330.111 180.69C330.298 180.53 330.391 180.323 330.391 180.07C330.391 179.863 330.328 179.693 330.201 179.56C330.075 179.427 329.915 179.323 329.721 179.25C329.535 179.17 329.275 179.083 328.941 178.99C328.488 178.857 328.118 178.727 327.831 178.6C327.551 178.467 327.308 178.27 327.101 178.01C326.901 177.743 326.801 177.39 326.801 176.95C326.801 176.537 326.905 176.177 327.111 175.87C327.318 175.563 327.608 175.33 327.981 175.17C328.355 175.003 328.781 174.92 329.261 174.92C329.981 174.92 330.565 175.097 331.011 175.45C331.465 175.797 331.715 176.283 331.761 176.91H330.221C330.208 176.67 330.105 176.473 329.911 176.32C329.725 176.16 329.475 176.08 329.161 176.08C328.888 176.08 328.668 176.15 328.501 176.29C328.341 176.43 328.261 176.633 328.261 176.9C328.261 177.087 328.321 177.243 328.441 177.37C328.568 177.49 328.721 177.59 328.901 177.67C329.088 177.743 329.348 177.83 329.681 177.93C330.135 178.063 330.505 178.197 330.791 178.33C331.078 178.463 331.325 178.663 331.531 178.93C331.738 179.197 331.841 179.547 331.841 179.98C331.841 180.353 331.745 180.7 331.551 181.02C331.358 181.34 331.075 181.597 330.701 181.79C330.328 181.977 329.885 182.07 329.371 182.07ZM340.735 176.46L339.115 182H337.605L336.595 178.13L335.585 182H334.065L332.435 176.46H333.855L334.835 180.68L335.895 176.46H337.375L338.415 180.67L339.395 176.46H340.735ZM341.133 179.21C341.133 178.65 341.243 178.153 341.463 177.72C341.689 177.287 341.993 176.953 342.373 176.72C342.759 176.487 343.189 176.37 343.663 176.37C344.076 176.37 344.436 176.453 344.743 176.62C345.056 176.787 345.306 176.997 345.493 177.25V176.46H346.903V182H345.493V181.19C345.313 181.45 345.063 181.667 344.743 181.84C344.429 182.007 344.066 182.09 343.653 182.09C343.186 182.09 342.759 181.97 342.373 181.73C341.993 181.49 341.689 181.153 341.463 180.72C341.243 180.28 341.133 179.777 341.133 179.21ZM345.493 179.23C345.493 178.89 345.426 178.6 345.293 178.36C345.159 178.113 344.979 177.927 344.753 177.8C344.526 177.667 344.283 177.6 344.023 177.6C343.763 177.6 343.523 177.663 343.303 177.79C343.083 177.917 342.903 178.103 342.763 178.35C342.629 178.59 342.563 178.877 342.563 179.21C342.563 179.543 342.629 179.837 342.763 180.09C342.903 180.337 343.083 180.527 343.303 180.66C343.529 180.793 343.769 180.86 344.023 180.86C344.283 180.86 344.526 180.797 344.753 180.67C344.979 180.537 345.159 180.35 345.293 180.11C345.426 179.863 345.493 179.57 345.493 179.23ZM349.9 177.61V180.29C349.9 180.477 349.943 180.613 350.03 180.7C350.123 180.78 350.277 180.82 350.49 180.82H351.14V182H350.26C349.08 182 348.49 181.427 348.49 180.28V177.61H347.83V176.46H348.49V175.09H349.9V176.46H351.14V177.61H349.9ZM351.787 179.23C351.787 178.657 351.904 178.157 352.137 177.73C352.37 177.297 352.694 176.963 353.107 176.73C353.52 176.49 353.994 176.37 354.527 176.37C355.214 176.37 355.78 176.543 356.227 176.89C356.68 177.23 356.984 177.71 357.137 178.33H355.627C355.547 178.09 355.41 177.903 355.217 177.77C355.03 177.63 354.797 177.56 354.517 177.56C354.117 177.56 353.8 177.707 353.567 178C353.334 178.287 353.217 178.697 353.217 179.23C353.217 179.757 353.334 180.167 353.567 180.46C353.8 180.747 354.117 180.89 354.517 180.89C355.084 180.89 355.454 180.637 355.627 180.13H357.137C356.984 180.73 356.68 181.207 356.227 181.56C355.774 181.913 355.207 182.09 354.527 182.09C353.994 182.09 353.52 181.973 353.107 181.74C352.694 181.5 352.37 181.167 352.137 180.74C351.904 180.307 351.787 179.803 351.787 179.23ZM361.283 176.38C361.703 176.38 362.076 176.473 362.403 176.66C362.729 176.84 362.983 177.11 363.163 177.47C363.349 177.823 363.443 178.25 363.443 178.75V182H362.043V178.94C362.043 178.5 361.933 178.163 361.713 177.93C361.493 177.69 361.193 177.57 360.813 177.57C360.426 177.57 360.119 177.69 359.893 177.93C359.673 178.163 359.563 178.5 359.563 178.94V182H358.163V174.6H359.563V177.15C359.743 176.91 359.983 176.723 360.283 176.59C360.583 176.45 360.916 176.38 361.283 176.38Z" fill="white"/>
<path id="Ergonomic Band" d="M300.09 73.15V74.9H302.44V76.01H300.09V77.86H302.74V79H298.69V72.01H302.74V73.15H300.09ZM305.412 74.32C305.592 74.0267 305.826 73.7967 306.112 73.63C306.406 73.4633 306.739 73.38 307.112 73.38V74.85H306.742C306.302 74.85 305.969 74.9533 305.742 75.16C305.522 75.3667 305.412 75.7267 305.412 76.24V79H304.012V73.46H305.412V74.32ZM310.225 73.37C310.639 73.37 311.002 73.4533 311.315 73.62C311.629 73.78 311.875 73.99 312.055 74.25V73.46H313.465V79.04C313.465 79.5533 313.362 80.01 313.155 80.41C312.949 80.8167 312.639 81.1367 312.225 81.37C311.812 81.61 311.312 81.73 310.725 81.73C309.939 81.73 309.292 81.5467 308.785 81.18C308.285 80.8133 308.002 80.3133 307.935 79.68H309.325C309.399 79.9333 309.555 80.1333 309.795 80.28C310.042 80.4333 310.339 80.51 310.685 80.51C311.092 80.51 311.422 80.3867 311.675 80.14C311.929 79.9 312.055 79.5333 312.055 79.04V78.18C311.875 78.44 311.625 78.6567 311.305 78.83C310.992 79.0033 310.632 79.09 310.225 79.09C309.759 79.09 309.332 78.97 308.945 78.73C308.559 78.49 308.252 78.1533 308.025 77.72C307.805 77.28 307.695 76.7767 307.695 76.21C307.695 75.65 307.805 75.1533 308.025 74.72C308.252 74.2867 308.555 73.9533 308.935 73.72C309.322 73.4867 309.752 73.37 310.225 73.37ZM312.055 76.23C312.055 75.89 311.989 75.6 311.855 75.36C311.722 75.1133 311.542 74.9267 311.315 74.8C311.089 74.6667 310.845 74.6 310.585 74.6C310.325 74.6 310.085 74.6633 309.865 74.79C309.645 74.9167 309.465 75.1033 309.325 75.35C309.192 75.59 309.125 75.8767 309.125 76.21C309.125 76.5433 309.192 76.8367 309.325 77.09C309.465 77.3367 309.645 77.5267 309.865 77.66C310.092 77.7933 310.332 77.86 310.585 77.86C310.845 77.86 311.089 77.7967 311.315 77.67C311.542 77.5367 311.722 77.35 311.855 77.11C311.989 76.8633 312.055 76.57 312.055 76.23ZM317.293 79.09C316.759 79.09 316.279 78.9733 315.853 78.74C315.426 78.5 315.089 78.1633 314.843 77.73C314.603 77.2967 314.483 76.7967 314.483 76.23C314.483 75.6633 314.606 75.1633 314.853 74.73C315.106 74.2967 315.449 73.9633 315.883 73.73C316.316 73.49 316.799 73.37 317.333 73.37C317.866 73.37 318.349 73.49 318.783 73.73C319.216 73.9633 319.556 74.2967 319.803 74.73C320.056 75.1633 320.183 75.6633 320.183 76.23C320.183 76.7967 320.053 77.2967 319.793 77.73C319.539 78.1633 319.193 78.5 318.753 78.74C318.319 78.9733 317.833 79.09 317.293 79.09ZM317.293 77.87C317.546 77.87 317.783 77.81 318.003 77.69C318.229 77.5633 318.409 77.3767 318.543 77.13C318.676 76.8833 318.743 76.5833 318.743 76.23C318.743 75.7033 318.603 75.3 318.323 75.02C318.049 74.7333 317.713 74.59 317.313 74.59C316.913 74.59 316.576 74.7333 316.303 75.02C316.036 75.3 315.903 75.7033 315.903 76.23C315.903 76.7567 316.033 77.1633 316.293 77.45C316.559 77.73 316.893 77.87 317.293 77.87ZM324.28 73.38C324.94 73.38 325.473 73.59 325.88 74.01C326.286 74.4233 326.49 75.0033 326.49 75.75V79H325.09V75.94C325.09 75.5 324.98 75.1633 324.76 74.93C324.54 74.69 324.24 74.57 323.86 74.57C323.473 74.57 323.166 74.69 322.94 74.93C322.72 75.1633 322.61 75.5 322.61 75.94V79H321.21V73.46H322.61V74.15C322.796 73.91 323.033 73.7233 323.32 73.59C323.613 73.45 323.933 73.38 324.28 73.38ZM330.281 79.09C329.748 79.09 329.268 78.9733 328.841 78.74C328.414 78.5 328.078 78.1633 327.831 77.73C327.591 77.2967 327.471 76.7967 327.471 76.23C327.471 75.6633 327.594 75.1633 327.841 74.73C328.094 74.2967 328.438 73.9633 328.871 73.73C329.304 73.49 329.788 73.37 330.321 73.37C330.854 73.37 331.338 73.49 331.771 73.73C332.204 73.9633 332.544 74.2967 332.791 74.73C333.044 75.1633 333.171 75.6633 333.171 76.23C333.171 76.7967 333.041 77.2967 332.781 77.73C332.528 78.1633 332.181 78.5 331.741 78.74C331.308 78.9733 330.821 79.09 330.281 79.09ZM330.281 77.87C330.534 77.87 330.771 77.81 330.991 77.69C331.218 77.5633 331.398 77.3767 331.531 77.13C331.664 76.8833 331.731 76.5833 331.731 76.23C331.731 75.7033 331.591 75.3 331.311 75.02C331.038 74.7333 330.701 74.59 330.301 74.59C329.901 74.59 329.564 74.7333 329.291 75.02C329.024 75.3 328.891 75.7033 328.891 76.23C328.891 76.7567 329.021 77.1633 329.281 77.45C329.548 77.73 329.881 77.87 330.281 77.87ZM341.078 73.38C341.758 73.38 342.304 73.59 342.718 74.01C343.138 74.4233 343.348 75.0033 343.348 75.75V79H341.948V75.94C341.948 75.5067 341.838 75.1767 341.618 74.95C341.398 74.7167 341.098 74.6 340.718 74.6C340.338 74.6 340.034 74.7167 339.808 74.95C339.588 75.1767 339.478 75.5067 339.478 75.94V79H338.078V75.94C338.078 75.5067 337.968 75.1767 337.748 74.95C337.528 74.7167 337.228 74.6 336.848 74.6C336.461 74.6 336.154 74.7167 335.928 74.95C335.708 75.1767 335.598 75.5067 335.598 75.94V79H334.198V73.46H335.598V74.13C335.778 73.8967 336.008 73.7133 336.288 73.58C336.574 73.4467 336.888 73.38 337.228 73.38C337.661 73.38 338.048 73.4733 338.388 73.66C338.728 73.84 338.991 74.1 339.178 74.44C339.358 74.12 339.618 73.8633 339.958 73.67C340.304 73.4767 340.678 73.38 341.078 73.38ZM345.386 72.8C345.14 72.8 344.933 72.7233 344.766 72.57C344.606 72.41 344.526 72.2133 344.526 71.98C344.526 71.7467 344.606 71.5533 344.766 71.4C344.933 71.24 345.14 71.16 345.386 71.16C345.633 71.16 345.836 71.24 345.996 71.4C346.163 71.5533 346.246 71.7467 346.246 71.98C346.246 72.2133 346.163 72.41 345.996 72.57C345.836 72.7233 345.633 72.8 345.386 72.8ZM346.076 73.46V79H344.676V73.46H346.076ZM347.1 76.23C347.1 75.6567 347.216 75.1567 347.45 74.73C347.683 74.2967 348.006 73.9633 348.42 73.73C348.833 73.49 349.306 73.37 349.84 73.37C350.526 73.37 351.093 73.5433 351.54 73.89C351.993 74.23 352.296 74.71 352.45 75.33H350.94C350.86 75.09 350.723 74.9033 350.53 74.77C350.343 74.63 350.11 74.56 349.83 74.56C349.43 74.56 349.113 74.7067 348.88 75C348.646 75.2867 348.53 75.6967 348.53 76.23C348.53 76.7567 348.646 77.1667 348.88 77.46C349.113 77.7467 349.43 77.89 349.83 77.89C350.396 77.89 350.766 77.6367 350.94 77.13H352.45C352.296 77.73 351.993 78.2067 351.54 78.56C351.086 78.9133 350.52 79.09 349.84 79.09C349.306 79.09 348.833 78.9733 348.42 78.74C348.006 78.5 347.683 78.1667 347.45 77.74C347.216 77.3067 347.1 76.8033 347.1 76.23ZM359.818 75.42C360.211 75.4933 360.535 75.69 360.788 76.01C361.041 76.33 361.168 76.6967 361.168 77.11C361.168 77.4833 361.075 77.8133 360.888 78.1C360.708 78.38 360.445 78.6 360.098 78.76C359.751 78.92 359.341 79 358.868 79H355.858V72.02H358.738C359.211 72.02 359.618 72.0967 359.958 72.25C360.305 72.4033 360.565 72.6167 360.738 72.89C360.918 73.1633 361.008 73.4733 361.008 73.82C361.008 74.2267 360.898 74.5667 360.678 74.84C360.465 75.1133 360.178 75.3067 359.818 75.42ZM357.258 74.9H358.538C358.871 74.9 359.128 74.8267 359.308 74.68C359.488 74.5267 359.578 74.31 359.578 74.03C359.578 73.75 359.488 73.5333 359.308 73.38C359.128 73.2267 358.871 73.15 358.538 73.15H357.258V74.9ZM358.668 77.86C359.008 77.86 359.271 77.78 359.458 77.62C359.651 77.46 359.748 77.2333 359.748 76.94C359.748 76.64 359.648 76.4067 359.448 76.24C359.248 76.0667 358.978 75.98 358.638 75.98H357.258V77.86H358.668ZM361.924 76.21C361.924 75.65 362.034 75.1533 362.254 74.72C362.48 74.2867 362.784 73.9533 363.164 73.72C363.55 73.4867 363.98 73.37 364.454 73.37C364.867 73.37 365.227 73.4533 365.534 73.62C365.847 73.7867 366.097 73.9967 366.284 74.25V73.46H367.694V79H366.284V78.19C366.104 78.45 365.854 78.6667 365.534 78.84C365.22 79.0067 364.857 79.09 364.444 79.09C363.977 79.09 363.55 78.97 363.164 78.73C362.784 78.49 362.48 78.1533 362.254 77.72C362.034 77.28 361.924 76.7767 361.924 76.21ZM366.284 76.23C366.284 75.89 366.217 75.6 366.084 75.36C365.95 75.1133 365.77 74.9267 365.544 74.8C365.317 74.6667 365.074 74.6 364.814 74.6C364.554 74.6 364.314 74.6633 364.094 74.79C363.874 74.9167 363.694 75.1033 363.554 75.35C363.42 75.59 363.354 75.8767 363.354 76.21C363.354 76.5433 363.42 76.8367 363.554 77.09C363.694 77.3367 363.874 77.5267 364.094 77.66C364.32 77.7933 364.56 77.86 364.814 77.86C365.074 77.86 365.317 77.7967 365.544 77.67C365.77 77.5367 365.95 77.35 366.084 77.11C366.217 76.8633 366.284 76.57 366.284 76.23ZM372.131 73.38C372.791 73.38 373.324 73.59 373.731 74.01C374.138 74.4233 374.341 75.0033 374.341 75.75V79H372.941V75.94C372.941 75.5 372.831 75.1633 372.611 74.93C372.391 74.69 372.091 74.57 371.711 74.57C371.324 74.57 371.018 74.69 370.791 74.93C370.571 75.1633 370.461 75.5 370.461 75.94V79H369.061V73.46H370.461V74.15C370.648 73.91 370.884 73.7233 371.171 73.59C371.464 73.45 371.784 73.38 372.131 73.38ZM375.312 76.21C375.312 75.65 375.422 75.1533 375.642 74.72C375.869 74.2867 376.176 73.9533 376.562 73.72C376.949 73.4867 377.379 73.37 377.852 73.37C378.212 73.37 378.556 73.45 378.882 73.61C379.209 73.7633 379.469 73.97 379.662 74.23V71.6H381.082V79H379.662V78.18C379.489 78.4533 379.246 78.6733 378.932 78.84C378.619 79.0067 378.256 79.09 377.842 79.09C377.376 79.09 376.949 78.97 376.562 78.73C376.176 78.49 375.869 78.1533 375.642 77.72C375.422 77.28 375.312 76.7767 375.312 76.21ZM379.672 76.23C379.672 75.89 379.606 75.6 379.472 75.36C379.339 75.1133 379.159 74.9267 378.932 74.8C378.706 74.6667 378.462 74.6 378.202 74.6C377.942 74.6 377.702 74.6633 377.482 74.79C377.262 74.9167 377.082 75.1033 376.942 75.35C376.809 75.59 376.742 75.8767 376.742 76.21C376.742 76.5433 376.809 76.8367 376.942 77.09C377.082 77.3367 377.262 77.5267 377.482 77.66C377.709 77.7933 377.949 77.86 378.202 77.86C378.462 77.86 378.706 77.7967 378.932 77.67C379.159 77.5367 379.339 77.35 379.472 77.11C379.606 76.8633 379.672 76.57 379.672 76.23Z" fill="white"/>
</g>
<g id="arrows">
<path id="Arrow 3" d="M171.907 171.509C171.636 171.56 171.457 171.822 171.509 172.093L172.345 176.515C172.397 176.786 172.658 176.964 172.929 176.913C173.201 176.862 173.379 176.6 173.328 176.329L172.584 172.398L176.515 171.655C176.786 171.603 176.964 171.342 176.913 171.071C176.862 170.799 176.6 170.621 176.329 170.672L171.907 171.509ZM238.282 216.587L172.282 171.587L171.718 172.413L237.718 217.413L238.282 216.587Z" fill="white"/>
<path id="Arrow 4" d="M226.703 166.598C226.481 166.762 226.434 167.076 226.598 167.297L229.276 170.914C229.44 171.136 229.753 171.183 229.975 171.019C230.197 170.854 230.244 170.541 230.079 170.319L227.699 167.104L230.914 164.724C231.136 164.56 231.183 164.247 231.019 164.025C230.854 163.803 230.541 163.756 230.319 163.921L226.703 166.598ZM294.074 176.505L227.074 166.505L226.926 167.495L293.926 177.495L294.074 176.505Z" fill="white"/>
<path id="Arrow 5" d="M233.53 103.829C233.436 104.089 233.57 104.376 233.829 104.47L238.058 106.008C238.318 106.102 238.605 105.968 238.699 105.709C238.793 105.449 238.659 105.162 238.4 105.068L234.641 103.701L236.008 99.9418C236.102 99.6823 235.968 99.3954 235.709 99.301C235.449 99.2067 235.162 99.3405 235.068 99.6001L233.53 103.829ZM293.789 75.5469L233.789 103.547L234.211 104.453L294.211 76.4531L293.789 75.5469Z" fill="white"/>
<path id="Arrow 2" d="M135.499 173.038C135.52 172.763 135.314 172.523 135.038 172.501L130.552 172.156C130.276 172.135 130.036 172.341 130.015 172.617C129.994 172.892 130.2 173.132 130.475 173.153L134.463 173.46L134.156 177.448C134.135 177.724 134.341 177.964 134.617 177.985C134.892 178.006 135.132 177.8 135.153 177.525L135.499 173.038ZM93.3254 209.38L135.325 173.38L134.675 172.62L92.6746 208.62L93.3254 209.38Z" fill="white"/>
<path id="Arrow 1" d="M141.774 70.4461C142.02 70.5708 142.321 70.4723 142.446 70.2259L144.479 66.2115C144.604 65.9651 144.506 65.6643 144.259 65.5395C144.013 65.4147 143.712 65.5133 143.587 65.7596L141.78 69.328L138.211 67.5207C137.965 67.3959 137.664 67.4944 137.54 67.7408C137.415 67.9871 137.513 68.288 137.76 68.4128L141.774 70.4461ZM122.525 12.1557L141.525 70.1557L142.475 69.8443L123.475 11.8443L122.525 12.1557Z" fill="white"/>
</g>
<defs>
<filter id="filter0_d" x="110.92" y="31.0683" width="132.541" height="206.016" filterUnits="userSpaceOnUse" color-interpolation-filters="sRGB">
<feFlood flood-opacity="0" result="BackgroundImageFix"/>
<feColorMatrix in="SourceAlpha" type="matrix" values="0 0 0 0 0 0 0 0 0 0 0 0 0 0 0 0 0 0 127 0"/>
<feOffset dy="4"/>
<feGaussianBlur stdDeviation="2"/>
<feColorMatrix type="matrix" values="0 0 0 0 0 0 0 0 0 0 0 0 0 0 0 0 0 0 0.25 0"/>
<feBlend mode="normal" in2="BackgroundImageFix" result="effect1_dropShadow"/>
<feBlend mode="normal" in="SourceGraphic" in2="effect1_dropShadow" result="shape"/>
</filter>
<filter id="filter1_d" x="111.316" y="50.7144" width="71.5352" height="149.265" filterUnits="userSpaceOnUse" color-interpolation-filters="sRGB">
<feFlood flood-opacity="0" result="BackgroundImageFix"/>
<feColorMatrix in="SourceAlpha" type="matrix" values="0 0 0 0 0 0 0 0 0 0 0 0 0 0 0 0 0 0 127 0"/>
<feOffset dy="4"/>
<feGaussianBlur stdDeviation="2"/>
<feColorMatrix type="matrix" values="0 0 0 0 0 0 0 0 0 0 0 0 0 0 0 0 0 0 0.25 0"/>
<feBlend mode="normal" in2="BackgroundImageFix" result="effect1_dropShadow"/>
<feBlend mode="normal" in="SourceGraphic" in2="effect1_dropShadow" result="shape"/>
</filter>
<filter id="filter2_d" x="145.313" y="31.3413" width="63.5589" height="205.385" filterUnits="userSpaceOnUse" color-interpolation-filters="sRGB">
<feFlood flood-opacity="0" result="BackgroundImageFix"/>
<feColorMatrix in="SourceAlpha" type="matrix" values="0 0 0 0 0 0 0 0 0 0 0 0 0 0 0 0 0 0 127 0"/>
<feOffset dy="4"/>
<feGaussianBlur stdDeviation="2"/>
<feColorMatrix type="matrix" values="0 0 0 0 0 0 0 0 0 0 0 0 0 0 0 0 0 0 0.25 0"/>
<feBlend mode="normal" in2="BackgroundImageFix" result="effect1_dropShadow"/>
<feBlend mode="normal" in="SourceGraphic" in2="effect1_dropShadow" result="shape"/>
</filter>
<filter id="filter3_d" x="182.863" y="65.2927" width="59.8564" height="130.164" filterUnits="userSpaceOnUse" color-interpolation-filters="sRGB">
<feFlood flood-opacity="0" result="BackgroundImageFix"/>
<feColorMatrix in="SourceAlpha" type="matrix" values="0 0 0 0 0 0 0 0 0 0 0 0 0 0 0 0 0 0 127 0"/>
<feOffset dy="4"/>
<feGaussianBlur stdDeviation="2"/>
<feColorMatrix type="matrix" values="0 0 0 0 0 0 0 0 0 0 0 0 0 0 0 0 0 0 0.25 0"/>
<feBlend mode="normal" in2="BackgroundImageFix" result="effect1_dropShadow"/>
<feBlend mode="normal" in="SourceGraphic" in2="effect1_dropShadow" result="shape"/>
</filter>
<filter id="filter4_d" x="166.44" y="174.778" width="44.3362" height="50.0213" filterUnits="userSpaceOnUse" color-interpolation-filters="sRGB">
<feFlood flood-opacity="0" result="BackgroundImageFix"/>
<feColorMatrix in="SourceAlpha" type="matrix" values="0 0 0 0 0 0 0 0 0 0 0 0 0 0 0 0 0 0 127 0"/>
<feOffset dy="4"/>
<feGaussianBlur stdDeviation="2"/>
<feColorMatrix type="matrix" values="0 0 0 0 0 0 0 0 0 0 0 0 0 0 0 0 0 0 0.25 0"/>
<feBlend mode="normal" in2="BackgroundImageFix" result="effect1_dropShadow"/>
<feBlend mode="normal" in="SourceGraphic" in2="effect1_dropShadow" result="shape"/>
</filter>
<filter id="filter5_d" x="125.692" y="168.651" width="17.7718" height="15.2291" filterUnits="userSpaceOnUse" color-interpolation-filters="sRGB">
<feFlood flood-opacity="0" result="BackgroundImageFix"/>
<feColorMatrix in="SourceAlpha" type="matrix" values="0 0 0 0 0 0 0 0 0 0 0 0 0 0 0 0 0 0 127 0"/>
<feOffset dy="4"/>
<feGaussianBlur stdDeviation="2"/>
<feColorMatrix type="matrix" values="0 0 0 0 0 0 0 0 0 0 0 0 0 0 0 0 0 0 0.25 0"/>
<feBlend mode="normal" in2="BackgroundImageFix" result="effect1_dropShadow"/>
<feBlend mode="normal" in="SourceGraphic" in2="effect1_dropShadow" result="shape"/>
</filter>
</defs>
</svg>
