<?xml version="1.0" encoding="UTF-8" standalone="no"?>
<svg
   xmlns:osb="http://www.openswatchbook.org/uri/2009/osb"
   xmlns:dc="http://purl.org/dc/elements/1.1/"
   xmlns:cc="http://creativecommons.org/ns#"
   xmlns:rdf="http://www.w3.org/1999/02/22-rdf-syntax-ns#"
   xmlns:svg="http://www.w3.org/2000/svg"
   xmlns="http://www.w3.org/2000/svg"
   id="svg8"
   version="1.1"
   viewBox="0 0 297 210"
   height="210mm"
   width="297mm">
  <defs
     id="defs2">
    <linearGradient
       osb:paint="solid"
       id="linearGradient2549">
      <stop
         id="stop2547"
         offset="0"
         style="stop-color:#000000;stop-opacity:1;" />
    </linearGradient>
  </defs>
  <metadata
     id="metadata5">
    <rdf:RDF>
      <cc:Work
         rdf:about="">
        <dc:format>image/svg+xml</dc:format>
        <dc:type
           rdf:resource="http://purl.org/dc/dcmitype/StillImage" />
        <dc:title></dc:title>
      </cc:Work>
    </rdf:RDF>
  </metadata>
  <g
     transform="translate(0,-87)"
     id="layer1">
    <path
       id="path826"
       d="m 6.4812859,177.69757 c 0,0 -1.8708867,0.36749 -1.8040691,1.80407 0.066817,1.43657 0.8018084,1.97111 1.1024867,2.13815 0.3006781,0.16705 4.9444865,0.0334 4.9444865,0.0334 0,0 1.436573,-0.4009 1.403165,-1.73725 -0.03341,-1.33635 -0.668174,-2.23838 -1.637026,-2.23838 -0.9688523,0 -4.0090431,0 -4.0090431,0 z"
       style="fill:#d3460d;stroke:#000000;stroke-width:1;stroke-linecap:butt;stroke-linejoin:miter;stroke-opacity:1;fill-opacity:1;stroke-miterlimit:4;stroke-dasharray:none" />
    <path
       id="path828"
       d="m 16.871389,173.9892 v 11.09169 c 0,0 0.50113,2.10475 2.03793,2.10475 1.5368,0 2.03793,-2.07134 2.03793,-2.07134 l 0.03341,-11.02487 c 0,0 -0.167044,-1.60362 -2.03793,-1.60362 -1.870887,0 -2.071339,1.50339 -2.07134,1.50339 z"
       style="fill:#d3460d;stroke:#000000;stroke-width:1;stroke-linecap:butt;stroke-linejoin:miter;stroke-opacity:1;fill-opacity:1;stroke-miterlimit:4;stroke-dasharray:none" />
    <path
       id="path830"
       d="m 24.237723,159.22768 0.01699,29.26089 v 11.42578 c 0,0 0.337366,1.94196 1.896518,1.76478 1.559151,-0.17717 1.996187,-1.7127 1.996187,-1.7127 l -0.0118,-12.24879 -0.07087,-28.34822 c 0,0 -0.05906,-1.48828 -1.842635,-1.44103 -1.783575,0.0472 -1.984375,1.29929 -1.984375,1.29929 z"
       style="fill:#d3460d;stroke:#000000;stroke-width:1;stroke-linecap:butt;stroke-linejoin:miter;stroke-opacity:1;fill-opacity:1;stroke-miterlimit:4;stroke-dasharray:none" />
    <path
       id="path834"
       d="m 31.070081,166.3052 0.06682,25.92515 c 0,0 0.467723,2.28849 2.004523,2.20497 1.536798,-0.0835 2.054633,-2.07134 2.054633,-2.07134 l -0.05011,-25.72469 c 0,0 0.05846,-1.41987 -1.829126,-1.50339 -1.88759,-0.0835 -2.246736,1.1693 -2.246736,1.1693 z"
       style="fill:#d3460d;stroke:#000000;stroke-width:1;stroke-linecap:butt;stroke-linejoin:miter;stroke-opacity:1;fill-opacity:1;stroke-miterlimit:4;stroke-dasharray:none" />
    <path
       id="path836"
       d="m 38.27009,152.04613 0.09449,55.18453 c 0,0 0.4016,1.65364 1.996186,1.63002 1.594588,-0.0236 2.114304,-1.81901 2.114304,-1.81901 l -0.23623,-54.71205 c 0,0 0.206901,-1.79332 -1.780916,-1.87684 -1.987817,-0.0835 -2.187834,1.59335 -2.187834,1.59335 z"
       style="fill:#d3460d;stroke:#000000;stroke-width:1;stroke-linecap:butt;stroke-linejoin:miter;stroke-opacity:1;fill-opacity:1;stroke-miterlimit:4;stroke-dasharray:none" />
    <path
       id="path838"
       d="m 45.569454,158.82166 v 41.22632 c 0,0 0.579075,1.72565 1.937427,1.71384 1.358353,-0.0118 2.126118,-1.78358 2.126118,-1.78358 l -0.254955,-40.95613 c 0,0 -0.241139,-1.44807 -1.847538,-1.3772 -1.606399,0.0709 -1.961052,1.17675 -1.961052,1.17675 z"
       style="fill:#d3460d;stroke:#000000;stroke-width:1;stroke-linecap:butt;stroke-linejoin:miter;stroke-opacity:1;fill-opacity:1;stroke-miterlimit:4;stroke-dasharray:none" />
    <path
       id="path840"
       d="m 52.066218,166.26749 -0.04725,26.45833 c 0,0 0.188989,2.05525 2.102493,2.03162 1.913503,-0.0236 2.173364,-1.79538 2.173364,-1.79538 l -0.03459,-26.65686 c 0,0 -0.154395,-1.66773 -2.162392,-1.45512 -2.008,0.21261 -2.031625,1.41741 -2.031625,1.41741 z"
       style="fill:#d3460d;stroke:#000000;stroke-width:1;stroke-linecap:butt;stroke-linejoin:miter;stroke-opacity:1;fill-opacity:1;stroke-miterlimit:4;stroke-dasharray:none" />
    <path
       id="path842"
       d="m 62.006529,177.53053 233.059021,0.26726 c 0,0 2.00454,0.80181 1.73726,2.13816 -0.26729,1.33635 -1.33636,1.60362 -1.33636,1.60362 l -233.459921,0.26727 c 0,0 -2.00452,-0.60136 -2.071338,-1.87089 -0.06682,-1.26953 2.071338,-2.40542 2.071338,-2.40542 z"
       style="fill:#d3460d;stroke:#000000;stroke-width:1;stroke-linecap:butt;stroke-linejoin:miter;stroke-opacity:1;fill-opacity:1;stroke-miterlimit:4;stroke-dasharray:none" />
    <path
       id="path844"
       d="m 70.681547,139.47843 0.04725,22.9148 15.166295,0.0473 0.04725,-3.44903 -10.961309,-0.0472 0.04725,-6.18936 8.409969,-0.0472 v -3.87425 l -8.362722,-0.0472 v -5.71689 l 10.961309,-0.0945 -0.04725,-3.54353 z"
       style="fill:#d3460d;stroke:#000000;stroke-width:1;stroke-linecap:butt;stroke-linejoin:miter;stroke-opacity:1;fill-opacity:1;stroke-miterlimit:4;stroke-dasharray:none" />
    <path
       id="path846"
       d="m 93.785342,139.38393 0.04725,23.1038 h 4.11049 v -15.21354 l 6.094868,15.26078 h 5.24442 l 0.0472,-23.10379 -4.44122,0.0472 -0.0945,13.98511 -5.953124,-14.03236 z"
       style="fill:#d3460d;stroke:#000000;stroke-width:1;stroke-linecap:butt;stroke-linejoin:miter;stroke-opacity:1;fill-opacity:1;stroke-miterlimit:4;stroke-dasharray:none" />
    <path
       id="path844-9"
       d="m 116.62853,139.45468 0.0473,22.9148 15.16629,0.0473 0.0472,-3.44903 -10.9613,-0.0472 0.0472,-6.18936 8.40996,-0.0472 v -3.87425 l -8.36272,-0.0472 v -5.71689 l 10.96131,-0.0945 -0.0473,-3.54353 z"
       style="fill:#d3460d;stroke:#000000;stroke-width:1;stroke-linecap:butt;stroke-linejoin:miter;stroke-opacity:1;fill-opacity:1;stroke-miterlimit:4;stroke-dasharray:none" />
    <path
       id="path863"
       d="m 139.44787,139.51144 -0.0668,22.88495 4.34313,0.0334 v -8.8199 l 0.73499,-0.16704 5.91334,9.08716 h 5.94674 l -6.5481,-9.28761 c 0,0 3.34087,-0.23386 4.54358,-2.20498 1.20271,-1.97111 1.63703,-3.57473 1.40317,-6.41447 -0.23387,-2.83974 -3.14042,-4.81085 -4.24291,-4.94448 -1.10248,-0.13364 -12.02713,-0.16704 -12.02713,-0.16704 z"
       style="fill:#d3460d;stroke:#000000;stroke-width:1;stroke-linecap:butt;stroke-linejoin:miter;stroke-opacity:1;fill-opacity:1;stroke-miterlimit:4;stroke-dasharray:none" />
    <path
       id="path865"
       d="m 143.3901,142.98594 0.0668,6.5481 h 5.31198 c 0,0 2.77292,-0.53454 2.60588,-2.90655 -0.16705,-2.37202 -1.33635,-3.54132 -4.64381,-3.57473 -3.30746,-0.0334 -3.34087,-0.0668 -3.34087,-0.0668 z"
       style="fill:#ffffff;stroke:#000000;stroke-width:1;stroke-linecap:butt;stroke-linejoin:miter;stroke-opacity:1;fill-opacity:1;stroke-miterlimit:4;stroke-dasharray:none" />
    <path
       id="path867"
       d="m 173.20759,139.43118 0.0472,15.63876 c 0,0 0.0945,4.8192 -3.63802,4.1105 -3.73251,-0.70871 -4.39397,-4.016 -4.34672,-4.06325 0.0472,-0.0472 -3.59078,1.55915 -3.59078,1.55915 0,0 0.94494,4.86645 4.72471,6.00037 3.77976,1.13393 6.70907,0.0945 6.70907,0.0945 0,0 4.15774,-0.89769 4.48847,-6.85082 0.33073,-5.95312 -0.0945,-16.5837 -0.0945,-16.5837 z"
       style="fill:#d3460d;stroke:#000000;stroke-width:1;stroke-linecap:butt;stroke-linejoin:miter;stroke-opacity:1;fill-opacity:1;stroke-miterlimit:4;stroke-dasharray:none" />
    <path
       id="path871"
       d="m 187.05097,141.03758 c 0,0 -3.59078,3.87426 -3.2128,9.30766 0.37797,5.43341 0.8032,6.80357 2.88207,10.06362 2.07887,3.26004 7.74851,2.59858 7.74851,2.59858 0,0 5.33891,-0.14174 6.89806,-7.46502 1.55916,-7.32329 -0.85044,-11.9535 -1.74814,-13.74889 -0.89769,-1.79539 -3.59077,-2.78757 -3.59077,-2.78757 0,0 -4.016,-1.03944 -6.47284,0.37797 -2.45685,1.41741 -2.50409,1.65365 -2.50409,1.65365 z"
       style="fill:#d3460d;stroke:#000000;stroke-width:1;stroke-linecap:butt;stroke-linejoin:miter;stroke-opacity:1;fill-opacity:1;stroke-miterlimit:4;stroke-dasharray:none" />
    <path
       id="path873"
       d="m 190.26376,143.58892 c 0,0 -2.45684,1.55915 -2.3151,6.70908 0.14174,5.14992 1.18117,6.52009 1.6064,7.22879 0.42522,0.70871 1.98437,2.12611 3.96875,1.74814 1.98437,-0.37798 3.82701,-2.03162 4.11049,-5.5279 0.28348,-3.49628 -0.0945,-6.94532 -0.56697,-7.84301 -0.47246,-0.89769 -1.70089,-3.87425 -4.81919,-2.92931 -3.11831,0.94494 -1.98438,0.61421 -1.98438,0.61421 z"
       style="fill:#ffffff;stroke:#000000;stroke-width:1;stroke-linecap:butt;stroke-linejoin:miter;stroke-opacity:1;stroke-miterlimit:4;stroke-dasharray:none;fill-opacity:1" />
    <path
       id="path877"
       d="m 215.21019,138.58073 c 0,0 -5.57515,0.33073 -7.46503,6.04762 -1.88988,5.71689 0.14174,12.94569 0.14174,12.94569 0,0 2.74033,5.4334 5.38616,5.4334 2.64584,0 5.57515,-0.0472 5.57515,-0.0472 0,0 3.68527,-1.08668 5.29167,-5.71689 1.6064,-4.63021 0.99219,-6.85082 0.99219,-6.85082 l -8.59896,0.0472 0.0945,3.73251 4.25223,-0.0472 c 0,0 -0.56696,4.96094 -3.9215,4.91369 -3.35454,-0.0472 -4.25223,-1.27567 -4.86644,-3.1183 -0.61421,-1.84263 -1.13393,-5.95312 -0.47247,-8.59896 0.66146,-2.64583 2.36235,-4.48847 3.82701,-4.58296 1.46465,-0.0945 3.54352,0.28348 4.25223,1.79539 0.7087,1.5119 0.51972,3.07106 0.51972,3.07106 h 3.77976 l 0.0472,-8.26823 h -3.73252 v 1.6064 c 0,0 -1.08668,-2.31511 -3.02381,-2.31511 -1.93713,0 -2.07887,-0.0473 -2.07887,-0.0473 z"
       style="fill:#d3460d;stroke:#000000;stroke-width:1;stroke-linecap:butt;stroke-linejoin:miter;stroke-opacity:1;fill-opacity:1;stroke-miterlimit:4;stroke-dasharray:none" />
  </g>
</svg>
