<svg height="444pt" viewBox="0 0 444.84928 444" width="444pt" xmlns="http://www.w3.org/2000/svg"><path d="m444.847656 48.425781c0 26.507813-21.488281 48-48 48-26.507812 0-48-21.492187-48-48 0-26.511719 21.492188-48 48-48 26.511719 0 48 21.488281 48 48zm0 0"/><path d="m307.671875 126.023438c7.511719-7.535157 7.511719-19.726563 0-27.261719l-69.855469-69.816407c-9.371094-9.371093-24.5625-9.371093-33.933594 0l-93.859374 93.878907c-7.507813 7.535156-7.507813 19.726562 0 27.265625 7.621093 7.34375 19.675781 7.363281 27.320312.046875l77.847656-77.847657c3.125-3.125 8.191406-3.125 11.3125 0l53.847656 53.847657c7.539063 7.515625 19.738282 7.515625 27.273438 0zm0 0"/><path d="m428.847656 208.425781h-88c-4.417968 0-8-3.582031-8-8v-28.6875l-32 32v28.6875c0 4.417969 3.582032 8 8 8h120c8.839844 0 16-7.164062 16-16 0-8.835937-7.160156-16-16-16zm0 0"/><path d="m142.386719 275.570312-136.738281 136.757813c-7.53125 7.527344-7.53125 19.738281 0 27.265625v.03125c7.535156 7.519531 19.730468 7.519531 27.265624 0l136.785157-136.738281zm0 0"/><path d="m193.273438 415.960938 111.304687-60.335938c6.484375-3.714844 10.867187-10.242188 11.855469-17.652344.988281-7.40625-1.53125-14.855468-6.816406-20.140625l-92.625-92.605469c-7.550782-7.554687-19.792969-7.554687-27.34375 0-7.550782 7.550782-7.550782 19.792969 0 27.34375l70.121093 70.117188c1.792969 1.792969 2.632813 4.328125 2.261719 6.835938-.375 2.507812-1.914062 4.691406-4.148438 5.886718l-85.113281 45.351563c-9.070312 5.359375-12.148437 17.011719-6.914062 26.152343l1.144531 2.09375c5.378906 9.121094 17.089844 12.21875 26.273438 6.953126zm0 0"/></svg>