<?xml version="1.0" encoding="utf-8"?>
<!-- Generator: Adobe Illustrator 21.0.0, SVG Export Plug-In . SVG Version: 6.00 Build 0)  -->
<svg version="1.1" xmlns="http://www.w3.org/2000/svg" xmlns:xlink="http://www.w3.org/1999/xlink" x="0px" y="0px"
	 viewBox="0 0 1400 980" style="enable-background:new 0 0 1400 980;" xml:space="preserve">
<style type="text/css">
	.st0{fill:url(#SVGID_1_);}
	.st1{fill:url(#SVGID_2_);}
	.st2{fill:none;stroke:#BA6525;stroke-miterlimit:10;}
	.st3{fill:#3A1E17;}
	.st4{fill:#F8D286;}
	.st5{fill:#EDA946;}
	.st6{fill:#EDBB40;}
</style>
<g id="Background">
	<linearGradient id="SVGID_1_" gradientUnits="userSpaceOnUse" x1="116.352" y1="1179.4265" x2="1523.4927" y2="-482.7397">
		<stop  offset="0" style="stop-color:#F9F9DA"/>
		<stop  offset="0.1862" style="stop-color:#F5D494"/>
		<stop  offset="0.5917" style="stop-color:#E77949"/>
		<stop  offset="0.714" style="stop-color:#E35E33"/>
		<stop  offset="1" style="stop-color:#3F2E3E"/>
	</linearGradient>
	<rect class="st0" width="1400" height="980"/>
</g>
<g id="Object">
	<linearGradient id="SVGID_2_" gradientUnits="userSpaceOnUse" x1="176.8975" y1="397.7263" x2="-37.2741" y2="794.9173">
		<stop  offset="2.702703e-03" style="stop-color:#F9F9DA"/>
		<stop  offset="0.2595" style="stop-color:#F5D494"/>
		<stop  offset="0.8132" style="stop-color:#F18335"/>
	</linearGradient>
	<path class="st1" d="M76.9,378.2c-27.7,0-53.8,6.5-76.9,18.1V704c23.2,11.6,49.3,18.1,76.9,18.1c95,0,171.9-77,171.9-171.9
		S171.9,378.2,76.9,378.2z"/>
	<rect x="239.9" y="556.5" class="st3" width="48.2" height="156.4"/>
	<rect x="1182.6" y="520.7" class="st3" width="69.6" height="156.4"/>
	<rect x="1182.6" y="628.1" class="st3" width="114.3" height="160"/>
	<g>
		<rect x="822" y="483.2" class="st3" width="59.5" height="135.9"/>
		<rect x="834" y="455.4" class="st3" width="35.3" height="84.5"/>
		<polygon class="st3" points="851.7,438.9 835.2,455.4 868.2,455.4 		"/>
	</g>
	<path class="st3" d="M520.8,617.6h-53.1V471.2l36.5,25.4c10.4,7.2,16.6,19.1,16.6,31.8V617.6z"/>
	<g>
		<rect x="122.1" y="504.3" class="st4" width="38" height="33.1"/>
		<polygon class="st3" points="188,511.5 160.1,504.3 160.1,537.4 188,542.4 		"/>
		<rect x="113.5" y="531.8" class="st4" width="51.3" height="44.7"/>
		<rect x="116.4" y="559.1" class="st3" width="45.6" height="6.9"/>
		<rect x="116.4" y="545.7" class="st3" width="45.6" height="6.9"/>
		<rect x="116.4" y="534.5" class="st3" width="45.6" height="6.9"/>
		<polygon class="st3" points="197,539.5 164.9,531.8 164.9,576.5 197,581.2 		"/>
		<rect x="103.1" y="569.7" class="st4" width="67.5" height="218.4"/>
		<rect x="149.4" y="576.5" class="st3" width="8.4" height="211.6"/>
		<rect x="130.8" y="576.5" class="st3" width="8.4" height="211.6"/>
		<rect x="112.1" y="576.5" class="st3" width="8.4" height="211.6"/>
		<polygon class="st3" points="205.3,576.5 170.6,569.7 170.6,788.1 205.3,788.1 		"/>
	</g>
	<g>
		<rect x="637.5" y="368.2" class="st5" width="68.9" height="122.9"/>
		<polygon class="st3" points="747.7,491.1 706.4,491.1 706.4,368.2 747.7,378 		"/>
		<rect x="623.2" y="418.6" class="st5" width="95.5" height="275.9"/>
		<rect x="627" y="423.1" class="st3" width="87.9" height="12.8"/>
		<rect x="627" y="444.9" class="st3" width="87.9" height="12.8"/>
		<rect x="627" y="466.8" class="st3" width="87.9" height="12.8"/>
		<rect x="627" y="488.7" class="st3" width="87.9" height="12.8"/>
		<rect x="627" y="510.6" class="st3" width="87.9" height="12.8"/>
		<rect x="627" y="532.4" class="st3" width="87.9" height="12.8"/>
		<rect x="627" y="554.3" class="st3" width="87.9" height="12.8"/>
		<rect x="627" y="576.2" class="st3" width="87.9" height="12.8"/>
		<rect x="627" y="598" class="st3" width="87.9" height="12.8"/>
		<rect x="627" y="619.9" class="st3" width="87.9" height="12.8"/>
		<rect x="627" y="641.8" class="st3" width="87.9" height="12.8"/>
		<rect x="627" y="663.7" class="st3" width="87.9" height="12.8"/>
		<rect x="627" y="685.5" class="st3" width="87.9" height="8.9"/>
		<polygon class="st3" points="770.5,694.5 718.7,694.5 718.7,418.6 770.5,429.6 		"/>
		<rect x="639.2" y="371.1" class="st3" width="63.4" height="7.1"/>
		<rect x="639.2" y="382.7" class="st3" width="63.4" height="7.1"/>
		<rect x="639.2" y="394.3" class="st3" width="63.4" height="7.1"/>
		<rect x="639.2" y="405.9" class="st3" width="63.4" height="7.1"/>
	</g>
	<g>
		<rect x="330.6" y="416.8" class="st6" width="68.3" height="249.5"/>
		<rect x="334" y="420.8" class="st3" width="61.4" height="11.6"/>
		<rect x="334" y="440.6" class="st3" width="61.4" height="11.6"/>
		<rect x="334" y="460.4" class="st3" width="61.4" height="11.6"/>
		<rect x="334" y="480.2" class="st3" width="61.4" height="11.6"/>
		<rect x="334" y="500" class="st3" width="61.4" height="11.6"/>
		<rect x="334" y="519.7" class="st3" width="61.4" height="11.6"/>
		<rect x="334" y="539.5" class="st3" width="61.4" height="11.6"/>
		<rect x="334" y="559.3" class="st3" width="61.4" height="11.6"/>
		<rect x="334" y="579.1" class="st3" width="61.4" height="11.6"/>
		<rect x="334" y="598.9" class="st3" width="61.4" height="11.6"/>
		<rect x="334" y="618.7" class="st3" width="61.4" height="11.6"/>
		<rect x="334" y="638.4" class="st3" width="61.4" height="11.6"/>
		<rect x="334" y="658.2" class="st3" width="61.4" height="8.1"/>
		<polygon class="st3" points="445.7,666.3 398.9,666.3 398.9,416.8 445.7,426.7 		"/>
	</g>
	<g>
		<rect x="685.1" y="511.6" class="st5" width="75.5" height="275.9"/>
		<rect x="688.9" y="516" class="st3" width="67.9" height="12.8"/>
		<rect x="688.9" y="537.9" class="st3" width="67.9" height="12.8"/>
		<rect x="688.9" y="559.8" class="st3" width="67.9" height="12.8"/>
		<rect x="688.9" y="581.7" class="st3" width="67.9" height="12.8"/>
		<rect x="688.9" y="603.5" class="st3" width="67.9" height="12.8"/>
		<rect x="688.9" y="625.4" class="st3" width="67.9" height="12.8"/>
		<rect x="688.9" y="647.3" class="st3" width="67.9" height="12.8"/>
		<rect x="688.9" y="669.1" class="st3" width="67.9" height="12.8"/>
		<rect x="688.9" y="691" class="st3" width="67.9" height="12.8"/>
		<rect x="688.9" y="712.9" class="st3" width="67.9" height="12.8"/>
		<rect x="688.9" y="734.8" class="st3" width="67.9" height="12.8"/>
		<rect x="688.9" y="756.6" class="st3" width="67.9" height="12.8"/>
		<rect x="688.9" y="778.5" class="st3" width="67.9" height="8.9"/>
		<polygon class="st3" points="812.4,787.4 760.6,787.4 760.6,511.6 812.4,522.6 		"/>
	</g>
	<g>
		<rect x="538.1" y="511.6" class="st5" width="75.5" height="275.9"/>
		<rect x="598.4" y="516.9" class="st3" width="10.3" height="270.6"/>
		<rect x="579.4" y="516.9" class="st3" width="10.3" height="270.6"/>
		<rect x="560.5" y="516.9" class="st3" width="10.3" height="270.6"/>
		<rect x="541.5" y="516.9" class="st3" width="10.3" height="270.6"/>
		<polygon class="st3" points="665.4,787.4 613.6,787.4 613.6,511.6 665.4,522.6 		"/>
	</g>
	<g>
		<rect x="432" y="589.3" class="st4" width="75.5" height="198.1"/>
		<rect x="492.3" y="594.6" class="st3" width="10.3" height="192.8"/>
		<rect x="473.3" y="594.6" class="st3" width="10.3" height="192.8"/>
		<rect x="454.4" y="594.6" class="st3" width="10.3" height="192.8"/>
		<rect x="435.4" y="594.6" class="st3" width="10.3" height="192.8"/>
		<polygon class="st3" points="559.3,787.4 507.5,787.4 507.5,589.3 559.3,600.3 		"/>
	</g>
	<g>
		<rect x="239.9" y="636.2" class="st5" width="104.6" height="151.9"/>
		<rect x="244.6" y="780.8" class="st3" width="95.1" height="7.3"/>
		<rect x="244.6" y="761.1" class="st3" width="95.1" height="7.3"/>
		<rect x="244.6" y="741.5" class="st3" width="95.1" height="7.3"/>
		<rect x="244.6" y="721.8" class="st3" width="95.1" height="7.3"/>
		<rect x="244.6" y="702.1" class="st3" width="95.1" height="7.3"/>
		<rect x="244.6" y="682.5" class="st3" width="95.1" height="7.3"/>
		<rect x="244.6" y="662.8" class="st3" width="95.1" height="7.3"/>
		<rect x="244.6" y="643.1" class="st3" width="95.1" height="7.3"/>
		<polygon class="st3" points="409,788.1 344.5,788.1 344.5,636.2 409,650 		"/>
	</g>
	<g>
		<rect x="189.9" y="666.3" class="st5" width="83.8" height="121.8"/>
		<rect x="193.7" y="782.3" class="st3" width="76.3" height="5.9"/>
		<rect x="193.7" y="766.5" class="st3" width="76.3" height="5.9"/>
		<rect x="193.7" y="750.7" class="st3" width="76.3" height="5.9"/>
		<rect x="193.7" y="734.9" class="st3" width="76.3" height="5.9"/>
		<rect x="193.7" y="719.2" class="st3" width="76.3" height="5.9"/>
		<rect x="193.7" y="703.4" class="st3" width="76.3" height="5.9"/>
		<rect x="193.7" y="687.6" class="st3" width="76.3" height="5.9"/>
		<rect x="193.7" y="671.9" class="st3" width="76.3" height="5.9"/>
		<polygon class="st3" points="325.6,788.1 273.8,788.1 273.8,666.3 325.6,677.4 		"/>
	</g>
	<g>
		<rect y="666.3" class="st5" width="83.8" height="121.8"/>
		<rect x="3.8" y="782.3" class="st3" width="76.3" height="5.9"/>
		<rect x="3.8" y="766.5" class="st3" width="76.3" height="5.9"/>
		<rect x="3.8" y="750.7" class="st3" width="76.3" height="5.9"/>
		<rect x="3.8" y="734.9" class="st3" width="76.3" height="5.9"/>
		<rect x="3.8" y="719.2" class="st3" width="76.3" height="5.9"/>
		<rect x="3.8" y="703.4" class="st3" width="76.3" height="5.9"/>
		<rect x="3.8" y="687.6" class="st3" width="76.3" height="5.9"/>
		<rect x="3.8" y="671.9" class="st3" width="76.3" height="5.9"/>
		<polygon class="st3" points="135.6,788.1 83.8,788.1 83.8,666.3 135.6,677.4 		"/>
	</g>
	<g>
		<rect x="883.9" y="461.1" class="st5" width="68.9" height="122.9"/>
		<polygon class="st3" points="994.1,584 952.8,584 952.8,461.1 994.1,471 		"/>
		<rect x="869.6" y="511.6" class="st5" width="95.5" height="275.9"/>
		<rect x="873.4" y="516" class="st3" width="87.9" height="12.8"/>
		<rect x="873.4" y="537.9" class="st3" width="87.9" height="12.8"/>
		<rect x="873.4" y="559.8" class="st3" width="87.9" height="12.8"/>
		<rect x="873.4" y="581.7" class="st3" width="87.9" height="12.8"/>
		<rect x="873.4" y="603.5" class="st3" width="87.9" height="12.8"/>
		<rect x="873.4" y="625.4" class="st3" width="87.9" height="12.8"/>
		<rect x="873.4" y="647.3" class="st3" width="87.9" height="12.8"/>
		<rect x="873.4" y="669.1" class="st3" width="87.9" height="12.8"/>
		<rect x="873.4" y="691" class="st3" width="87.9" height="12.8"/>
		<rect x="873.4" y="712.9" class="st3" width="87.9" height="12.8"/>
		<rect x="873.4" y="734.8" class="st3" width="87.9" height="12.8"/>
		<rect x="873.4" y="756.6" class="st3" width="87.9" height="12.8"/>
		<rect x="873.4" y="778.5" class="st3" width="87.9" height="8.9"/>
		<polygon class="st3" points="1016.9,787.4 965.1,787.4 965.1,511.6 1016.9,522.6 		"/>
		<rect x="885.6" y="464" class="st3" width="63.4" height="7.1"/>
		<rect x="885.6" y="475.6" class="st3" width="63.4" height="7.1"/>
		<rect x="885.6" y="487.2" class="st3" width="63.4" height="7.1"/>
		<rect x="885.6" y="498.9" class="st3" width="63.4" height="7.1"/>
	</g>
	<g>
		<rect x="561.5" y="666.3" class="st6" width="118" height="121.8"/>
		<rect x="565.3" y="782.3" class="st3" width="110.4" height="5.9"/>
		<rect x="565.3" y="766.5" class="st3" width="110.4" height="5.9"/>
		<rect x="565.3" y="750.7" class="st3" width="110.4" height="5.9"/>
		<rect x="565.3" y="734.9" class="st3" width="110.4" height="5.9"/>
		<rect x="565.3" y="719.2" class="st3" width="110.4" height="5.9"/>
		<rect x="565.3" y="703.4" class="st3" width="110.4" height="5.9"/>
		<rect x="565.3" y="687.6" class="st3" width="110.4" height="5.9"/>
		<rect x="565.3" y="671.9" class="st3" width="110.4" height="5.9"/>
		<polygon class="st3" points="731.2,788.1 679.4,788.1 679.4,666.3 731.2,677.4 		"/>
	</g>
	<g>
		<rect x="764.7" y="589.3" class="st4" width="75.5" height="198.1"/>
		<rect x="825" y="594.6" class="st3" width="10.3" height="192.8"/>
		<rect x="806" y="594.6" class="st3" width="10.3" height="192.8"/>
		<rect x="787.1" y="594.6" class="st3" width="10.3" height="192.8"/>
		<rect x="768.1" y="594.6" class="st3" width="10.3" height="192.8"/>
		<polygon class="st3" points="892,787.4 840.2,787.4 840.2,589.3 892,600.3 		"/>
	</g>
	<g>
		<rect x="391.8" y="666.3" class="st5" width="118" height="121.8"/>
		<g>
			
				<rect x="354.7" y="728.5" transform="matrix(-1.836970e-16 1 -1 -1.836970e-16 1142.8232 320.0791)" class="st3" width="113.3" height="5.9"/>
			
				<rect x="370.5" y="728.5" transform="matrix(-1.836970e-16 1 -1 -1.836970e-16 1158.5946 304.3077)" class="st3" width="113.3" height="5.9"/>
			
				<rect x="386.3" y="728.5" transform="matrix(-1.836970e-16 1 -1 -1.836970e-16 1174.3661 288.5362)" class="st3" width="113.3" height="5.9"/>
			
				<rect x="402" y="728.5" transform="matrix(-1.836970e-16 1 -1 -1.836970e-16 1190.1376 272.7648)" class="st3" width="113.3" height="5.9"/>
			
				<rect x="417.8" y="728.5" transform="matrix(-1.836970e-16 1 -1 -1.836970e-16 1205.9089 256.9933)" class="st3" width="113.3" height="5.9"/>
			
				<rect x="433.6" y="728.5" transform="matrix(-1.836970e-16 1 -1 -1.836970e-16 1221.6804 241.2219)" class="st3" width="113.3" height="5.9"/>
		</g>
		<polygon class="st3" points="561.6,788.1 509.8,788.1 509.8,666.3 561.6,677.4 		"/>
	</g>
	<g>
		<rect x="999.5" y="545" class="st5" width="137.7" height="95.5"/>
		<rect x="1003.7" y="553.1" class="st3" width="129.5" height="8.1"/>
		<rect x="1003.7" y="570.6" class="st3" width="129.5" height="8.1"/>
		<rect x="1003.7" y="588.2" class="st3" width="129.5" height="8.1"/>
		<rect x="1003.7" y="605.8" class="st3" width="129.5" height="8.1"/>
		<polygon class="st3" points="1162.2,640.5 1137.3,640.5 1137.3,545 1162.2,550.3 		"/>
		<rect x="1042" y="576.6" class="st4" width="28.1" height="24.5"/>
		<polygon class="st3" points="1078.1,578.3 1070.1,576.6 1070.1,601.1 1078.1,601.1 		"/>
		<rect x="984.2" y="614.3" class="st5" width="162.2" height="177.2"/>
		<rect x="1035.7" y="596.9" class="st4" width="37.9" height="33.1"/>
		<polygon class="st3" points="1084.4,599.2 1073.6,596.9 1073.6,630 1084.4,630 		"/>
		<rect x="1133.1" y="618.9" class="st3" width="8.9" height="167.3"/>
		<rect x="1116.7" y="618.9" class="st3" width="8.9" height="167.3"/>
		<rect x="1100.3" y="618.9" class="st3" width="8.9" height="167.3"/>
		<rect x="1023.5" y="618.9" class="st3" width="8.9" height="167.3"/>
		<rect x="1007.1" y="618.9" class="st3" width="8.9" height="167.3"/>
		<rect x="990.6" y="618.9" class="st3" width="8.9" height="167.3"/>
		<polygon class="st3" points="1191.3,791.5 1146.4,791.5 1146.4,614.3 1191.3,623.9 		"/>
		<rect x="1028" y="624.9" class="st4" width="49.9" height="161.3"/>
		<rect x="1062.1" y="630" class="st3" width="6.2" height="156.3"/>
		<rect x="1048.4" y="630" class="st3" width="6.2" height="156.3"/>
		<rect x="1034.6" y="630" class="st3" width="6.2" height="156.3"/>
		<polygon class="st3" points="1092.1,628 1077.8,624.9 1077.8,786.3 1092.1,786.3 		"/>
	</g>
	<rect y="780.8" class="st3" width="1400" height="199.2"/>
</g>
<g id="text">
</g>
</svg>
